<svg width="911.531250" height="1101.000000" viewBox="0 0 911.531 1101" fill="none" xmlns="http://www.w3.org/2000/svg" xmlns:xlink="http://www.w3.org/1999/xlink">
	<desc>
			Created with Pixso.
	</desc>
	<defs/>
	<g opacity="0.500000">
		<path id="Ellipse 257" d="M552.17 480.38C394.3 404.68 211.77 586.48 306.76 388.4C401.76 190.31 609.01 86.37 766.88 162.07C924.75 237.78 951.46 440.87 856.47 638.96C761.47 837.04 710.03 556.09 552.17 480.38Z" fill="#586773" fill-opacity="1.000000" fill-rule="nonzero"/>
		<path id="Ellipse 257" d="" fill="#000000" fill-opacity="0" fill-rule="evenodd"/>
	</g>
	<path id="Ellipse 256" d="M379.85 342.95C379.85 518.03 622.71 604 403.02 604C183.34 604 0 462.06 0 286.98C0 111.9 171.57 0 391.25 0C610.94 0 379.85 167.87 379.85 342.95Z" fill="#586773" fill-opacity="1.000000" fill-rule="nonzero"/>
	<path id="Ellipse 256" d="" fill="#000000" fill-opacity="0" fill-rule="evenodd"/>
	<circle id="Ellipse 228" cx="681.000000" cy="480.000000" r="124.000000" fill="#E0982C" fill-opacity="1.000000"/>
	<circle id="Ellipse 228" cx="681.000000" cy="480.000000" r="122.500000" stroke="#000000" stroke-opacity="1.000000" stroke-width="3.000000"/>
	<circle id="Ellipse 252" cx="447.500000" cy="1057.500000" r="43.500000" fill="#CD7B15" fill-opacity="1.000000"/>
	<circle id="Ellipse 252" cx="447.500000" cy="1057.500000" r="42.000000" stroke="#000000" stroke-opacity="1.000000" stroke-width="3.000000"/>
	<circle id="Ellipse 229" cx="681.000000" cy="176.000000" r="124.000000" fill="#C65126" fill-opacity="1.000000"/>
	<circle id="Ellipse 229" cx="681.000000" cy="176.000000" r="122.500000" stroke="#000000" stroke-opacity="1.000000" stroke-width="3.000000"/>
	<circle id="Ellipse 251" cx="551.000000" cy="755.000000" r="155.000000" fill="#C63A19" fill-opacity="1.000000"/>
	<circle id="Ellipse 251" cx="551.000000" cy="755.000000" r="153.500000" stroke="#000000" stroke-opacity="1.000000" stroke-width="3.000000"/>
	<circle id="Ellipse 230" cx="256.500000" cy="158.500000" r="28.500000" fill="#010101" fill-opacity="1.000000"/>
	<circle id="Ellipse 230" cx="256.500000" cy="158.500000" r="27.000000" stroke="#000000" stroke-opacity="1.000000" stroke-width="3.000000"/>
	<circle id="Ellipse 253" cx="815.500000" cy="761.500000" r="28.500000" fill="#010101" fill-opacity="1.000000"/>
	<circle id="Ellipse 253" cx="815.500000" cy="761.500000" r="27.000000" stroke="#000000" stroke-opacity="1.000000" stroke-width="3.000000"/>
	<circle id="Ellipse 254" cx="492.000000" cy="243.000000" r="22.000000" fill="#010101" fill-opacity="1.000000"/>
	<circle id="Ellipse 254" cx="492.000000" cy="243.000000" r="20.500000" stroke="#000000" stroke-opacity="1.000000" stroke-width="3.000000"/>
	<circle id="Ellipse 255" cx="536.000000" cy="33.000000" r="22.000000" fill="#010101" fill-opacity="1.000000"/>
	<circle id="Ellipse 255" cx="536.000000" cy="33.000000" r="20.500000" stroke="#000000" stroke-opacity="1.000000" stroke-width="3.000000"/>
	<circle id="Ellipse 232" cx="843.500000" cy="480.500000" r="19.500000" fill="#010101" fill-opacity="1.000000"/>
	<circle id="Ellipse 232" cx="843.500000" cy="480.500000" r="18.000000" stroke="#000000" stroke-opacity="1.000000" stroke-width="3.000000"/>
	<circle id="Ellipse 231" cx="843.500000" cy="52.500000" r="19.500000" fill="#010101" fill-opacity="1.000000"/>
	<circle id="Ellipse 231" cx="843.500000" cy="52.500000" r="18.000000" stroke="#000000" stroke-opacity="1.000000" stroke-width="3.000000"/>
</svg>
