<svg width="220.230469" height="247.097168" viewBox="0 0 220.23 247.097" fill="none" xmlns="http://www.w3.org/2000/svg" xmlns:xlink="http://www.w3.org/1999/xlink">
	<desc>
			Created with Pixso.
	</desc>
	<defs/>
	<ellipse id="Ellipse 216" rx="14.768460" ry="48.360069" transform="matrix(0.720019 -0.693954 0.693954 0.720019 66.9033 93.4285)" fill="#D9D9D9" fill-opacity="1.000000"/>
	<ellipse id="Ellipse 216" rx="13.268460" ry="46.860069" transform="matrix(0.720019 -0.693954 0.693954 0.720019 66.9033 93.4285)" stroke="#000000" stroke-opacity="1.000000" stroke-width="3.000000"/>
	<ellipse id="Ellipse 220" rx="14.768460" ry="48.360069" transform="matrix(-0.327982 -0.944684 0.944684 -0.327982 174.285 107.71)" fill="#D9D9D9" fill-opacity="1.000000"/>
	<ellipse id="Ellipse 220" rx="13.268460" ry="46.860069" transform="matrix(-0.327982 -0.944684 0.944684 -0.327982 174.285 107.71)" stroke="#000000" stroke-opacity="1.000000" stroke-width="3.000000"/>
	<ellipse id="Ellipse 221" rx="14.768460" ry="48.360069" transform="matrix(-0.999998 -0.00207513 0.00207513 -0.999998 114.529 68.7681)" fill="#D9D9D9" fill-opacity="1.000000"/>
	<ellipse id="Ellipse 221" rx="13.268460" ry="46.860069" transform="matrix(-0.999998 -0.00207513 0.00207513 -0.999998 114.529 68.7681)" stroke="#000000" stroke-opacity="1.000000" stroke-width="3.000000"/>
	<ellipse id="Ellipse 217" rx="14.768460" ry="47.104752" transform="matrix(0.720019 -0.693954 0.693954 0.720019 167.078 178.027)" fill="#D9D9D9" fill-opacity="1.000000"/>
	<ellipse id="Ellipse 217" rx="13.268460" ry="45.604752" transform="matrix(0.720019 -0.693954 0.693954 0.720019 167.078 178.027)" stroke="#000000" stroke-opacity="1.000000" stroke-width="3.000000"/>
	<ellipse id="Ellipse 222" rx="14.768460" ry="47.104752" transform="matrix(0.999625 -0.0274008 0.0274008 0.999625 113.383 200.008)" fill="#D9D9D9" fill-opacity="1.000000"/>
	<ellipse id="Ellipse 222" rx="13.268460" ry="45.604752" transform="matrix(0.999625 -0.0274008 0.0274008 0.999625 113.383 200.008)" stroke="#000000" stroke-opacity="1.000000" stroke-width="3.000000"/>
	<ellipse id="Ellipse 219" rx="14.768460" ry="47.704834" transform="matrix(0.519503 0.854469 -0.854469 0.519503 50.9346 171.263)" fill="#D9D9D9" fill-opacity="1.000000"/>
	<ellipse id="Ellipse 219" rx="13.268460" ry="46.204834" transform="matrix(0.519503 0.854469 -0.854469 0.519503 50.9346 171.263)" stroke="#000000" stroke-opacity="1.000000" stroke-width="3.000000"/>
	<path id="Vector 12" d="M2.5 2.5L2.5 174.76" stroke="#000000" stroke-opacity="1.000000" stroke-width="5.000000" stroke-linejoin="round" stroke-linecap="round"/>
	<path id="Vector 14" d="M191.06 2.5L18.79 2.5" stroke="#000000" stroke-opacity="1.000000" stroke-width="5.000000" stroke-linejoin="round" stroke-linecap="round"/>
	<circle id="Ellipse 223" cx="114.239258" cy="137.518066" r="9.311584" fill="#000000" fill-opacity="1.000000"/>
	<circle id="Ellipse 223" cx="114.239258" cy="137.518066" r="7.811584" stroke="#000000" stroke-opacity="1.000000" stroke-width="3.000000"/>
</svg>
