<svg width="624" height="621" viewBox="0 0 624 621" fill="none" xmlns="http://www.w3.org/2000/svg">
<path d="M308.158 157.621V471.978" stroke="black" stroke-width="5" stroke-linecap="round" stroke-linejoin="round"/>
<path d="M455.153 317.898L161.164 317.013" stroke="black" stroke-width="5" stroke-linecap="round" stroke-linejoin="round"/>
<circle cx="310.815" cy="309.929" r="19.7523" fill="black" stroke="black" stroke-width="3"/>
<path d="M550.695 114.221C551.269 114.908 551.572 116.169 551.081 118.387C550.598 120.569 549.41 123.364 547.495 126.729C543.674 133.444 537.151 142.106 528.394 152.138C510.893 172.185 484.652 197.494 453.816 223.297C422.98 249.101 393.44 270.47 370.623 284.161C359.204 291.014 349.527 295.907 342.244 298.484C338.594 299.776 335.634 300.453 333.401 300.543C331.13 300.635 329.942 300.115 329.368 299.429C328.794 298.742 328.491 297.481 328.982 295.263C329.465 293.081 330.653 290.286 332.568 286.921C336.389 280.206 342.912 271.544 351.669 261.512C369.17 241.466 395.412 216.156 426.247 190.353C457.083 164.549 486.623 143.18 509.44 129.489C520.859 122.637 530.536 117.743 537.819 115.166C541.469 113.874 544.429 113.197 546.662 113.107C548.933 113.015 550.121 113.535 550.695 114.221Z" fill="#93969B" stroke="black" stroke-width="3"/>
<path d="M312.494 1.84698C313.388 1.8605 314.541 2.45524 315.9 4.27609C317.237 6.06716 318.576 8.79284 319.873 12.441C322.461 19.7202 324.759 30.3176 326.633 43.5021C330.378 69.8474 332.398 106.25 331.79 146.453C331.183 186.656 328.065 222.981 323.525 249.201C321.253 262.323 318.637 272.846 315.83 280.044C314.424 283.651 313.002 286.335 311.612 288.085C310.199 289.864 309.029 290.423 308.134 290.41C307.239 290.396 306.087 289.802 304.727 287.981C303.391 286.19 302.051 283.464 300.754 279.816C298.166 272.537 295.869 261.939 293.995 248.755C290.249 222.409 288.23 186.007 288.837 145.804C289.445 105.601 292.563 69.276 297.102 43.0559C299.374 29.9341 301.991 19.411 304.797 12.2132C306.204 8.60591 307.625 5.92193 309.015 4.17208C310.429 2.39312 311.599 1.83346 312.494 1.84698Z" fill="#93969B" stroke="black" stroke-width="3"/>
<g filter="url(#filter0_d_65_999)">
<ellipse cx="445.569" cy="401.695" rx="145.798" ry="22.979" transform="rotate(30.3691 445.569 401.695)" fill="#D0BEA6"/>
<path d="M570.067 474.647C569.614 475.419 568.529 476.13 566.275 476.416C564.058 476.697 561.026 476.521 557.212 475.853C549.602 474.52 539.248 471.301 526.85 466.439C502.077 456.724 469.4 440.555 434.709 420.227C400.019 399.899 369.94 379.296 349.356 362.432C339.054 353.993 331.184 346.533 326.302 340.546C323.855 337.545 322.219 334.987 321.381 332.915C320.529 330.808 320.618 329.515 321.07 328.743C321.523 327.97 322.608 327.26 324.862 326.974C327.079 326.693 330.111 326.869 333.925 327.537C341.535 328.87 351.889 332.089 364.287 336.951C389.06 346.666 421.737 362.835 456.428 383.163C491.118 403.491 521.197 424.094 541.781 440.958C552.083 449.397 559.953 456.856 564.835 462.844C567.282 465.845 568.918 468.403 569.756 470.475C570.608 472.581 570.519 473.875 570.067 474.647Z" stroke="black" stroke-width="3"/>
</g>
<g filter="url(#filter1_d_65_999)">
<ellipse cx="473.819" cy="318.65" rx="145.798" ry="22.979" transform="rotate(1.00987 473.819 318.65)" fill="#D0BEA6"/>
<path d="M618.095 321.193C618.079 322.088 617.482 323.239 615.657 324.593C613.863 325.925 611.134 327.258 607.482 328.546C600.197 331.115 589.594 333.386 576.404 335.227C550.05 338.906 513.642 340.834 473.441 340.125C433.239 339.417 396.923 336.207 370.714 331.601C357.598 329.296 347.081 326.654 339.891 323.829C336.287 322.413 333.607 320.985 331.86 319.59C330.085 318.172 329.528 317.001 329.544 316.106C329.56 315.212 330.157 314.061 331.982 312.706C333.776 311.374 336.505 310.041 340.157 308.753C347.442 306.184 358.045 303.913 371.235 302.072C397.589 298.393 433.996 296.465 474.198 297.174C514.4 297.883 550.716 301.092 576.925 305.698C590.041 308.003 600.557 310.646 607.748 313.47C611.352 314.886 614.032 316.314 615.779 317.709C617.554 319.127 618.111 320.298 618.095 321.193Z" stroke="black" stroke-width="3"/>
</g>
<path d="M297.152 327.579C297.681 328.301 297.902 329.579 297.27 331.761C296.648 333.908 295.282 336.62 293.155 339.856C288.911 346.311 281.845 354.536 272.46 363.985C253.709 382.865 225.895 406.436 193.465 430.205C161.035 453.974 130.184 473.401 106.534 485.599C94.6979 491.703 84.7269 495.964 77.2933 498.068C73.5678 499.123 70.5699 499.608 68.3355 499.555C66.064 499.501 64.9119 498.906 64.3829 498.184C63.8538 497.462 63.6329 496.184 64.2652 494.002C64.8871 491.855 66.2529 489.142 68.38 485.907C72.6242 479.452 79.6901 471.227 89.0745 461.778C107.826 442.898 135.64 419.326 168.07 395.557C200.5 371.788 231.351 352.362 255.001 340.164C266.837 334.06 276.808 329.798 284.242 327.695C287.967 326.64 290.965 326.154 293.199 326.208C295.471 326.262 296.623 326.857 297.152 327.579Z" fill="#CA8855" stroke="black" stroke-width="3"/>
<path d="M310.179 330.048C311.074 330.049 312.234 330.628 313.619 332.429C314.981 334.201 316.359 336.908 317.707 340.537C320.397 347.779 322.844 358.343 324.904 371.5C329.02 397.79 331.552 434.16 331.511 474.368C331.47 514.576 328.864 550.941 324.695 577.222C322.608 590.375 320.14 600.934 317.435 608.17C316.08 611.797 314.696 614.501 313.331 616.27C311.943 618.069 310.781 618.645 309.886 618.644C308.991 618.643 307.83 618.065 306.446 616.263C305.084 614.491 303.706 611.784 302.358 608.155C299.667 600.913 297.221 590.349 295.161 577.192C291.045 550.902 288.512 514.532 288.553 474.324C288.594 434.117 291.2 397.752 295.37 371.47C297.456 358.317 299.924 347.759 302.629 340.522C303.985 336.895 305.368 334.191 306.734 332.422C308.122 330.624 309.284 330.047 310.179 330.048Z" fill="#CA8855" stroke="black" stroke-width="3"/>
<path d="M291.536 300.214C290.939 300.881 289.734 301.36 287.468 301.19C285.239 301.024 282.303 300.246 278.7 298.83C271.509 296.005 262.005 290.784 250.827 283.545C228.491 269.081 199.7 246.715 169.765 219.872C139.829 193.029 114.468 166.837 97.6641 146.204C89.2544 135.878 83.0317 126.998 79.4428 120.156C77.6442 116.728 76.5518 113.894 76.144 111.696C75.7294 109.462 76.0749 108.212 76.6723 107.546C77.2698 106.88 78.4748 106.401 80.7407 106.57C82.9694 106.737 85.9051 107.515 89.5088 108.931C96.6995 111.755 106.203 116.977 117.381 124.215C139.717 138.679 168.508 161.046 198.444 187.889C228.379 214.732 253.74 240.924 270.544 261.557C278.954 271.883 285.177 280.763 288.766 287.604C290.564 291.033 291.657 293.867 292.064 296.064C292.479 298.298 292.133 299.548 291.536 300.214Z" fill="#DB6A42" stroke="black" stroke-width="3"/>
<path d="M290.1 317.855C290.1 318.75 289.523 319.911 287.723 321.298C285.953 322.662 283.248 324.043 279.62 325.396C272.381 328.095 261.82 330.554 248.666 332.629C222.381 336.777 186.014 339.353 145.806 339.361C105.598 339.368 69.2302 336.806 42.9437 332.668C29.7887 330.597 19.2268 328.142 11.9869 325.445C8.3586 324.094 5.6532 322.714 3.8823 321.351C2.08191 319.965 1.50443 318.803 1.50426 317.908C1.5041 317.014 2.08114 315.852 3.88102 314.465C5.65142 313.101 8.3563 311.72 11.9841 310.368C19.223 307.669 29.784 305.21 42.9383 303.134C69.2232 298.986 105.59 296.41 145.798 296.403C186.006 296.395 222.374 298.958 248.661 303.096C261.816 305.166 272.377 307.622 279.617 310.318C283.246 311.669 285.951 313.049 287.722 314.413C289.522 315.799 290.1 316.96 290.1 317.855Z" fill="#DB6A42" stroke="black" stroke-width="3"/>
<defs>
<filter id="filter0_d_65_999" x="315.232" y="325.345" width="260.672" height="160.699" filterUnits="userSpaceOnUse" color-interpolation-filters="sRGB">
<feFlood flood-opacity="0" result="BackgroundImageFix"/>
<feColorMatrix in="SourceAlpha" type="matrix" values="0 0 0 0 0 0 0 0 0 0 0 0 0 0 0 0 0 0 127 0" result="hardAlpha"/>
<feOffset dy="4"/>
<feGaussianBlur stdDeviation="2"/>
<feComposite in2="hardAlpha" operator="out"/>
<feColorMatrix type="matrix" values="0 0 0 0 0 0 0 0 0 0 0 0 0 0 0 0 0 0 0.25 0"/>
<feBlend mode="normal" in2="BackgroundImageFix" result="effect1_dropShadow_65_999"/>
<feBlend mode="normal" in="SourceGraphic" in2="effect1_dropShadow_65_999" result="shape"/>
</filter>
<filter id="filter1_d_65_999" x="324.044" y="295.529" width="299.552" height="54.2417" filterUnits="userSpaceOnUse" color-interpolation-filters="sRGB">
<feFlood flood-opacity="0" result="BackgroundImageFix"/>
<feColorMatrix in="SourceAlpha" type="matrix" values="0 0 0 0 0 0 0 0 0 0 0 0 0 0 0 0 0 0 127 0" result="hardAlpha"/>
<feOffset dy="4"/>
<feGaussianBlur stdDeviation="2"/>
<feComposite in2="hardAlpha" operator="out"/>
<feColorMatrix type="matrix" values="0 0 0 0 0 0 0 0 0 0 0 0 0 0 0 0 0 0 0.25 0"/>
<feBlend mode="normal" in2="BackgroundImageFix" result="effect1_dropShadow_65_999"/>
<feBlend mode="normal" in="SourceGraphic" in2="effect1_dropShadow_65_999" result="shape"/>
</filter>
</defs>
</svg>
