<svg width="630" height="602" viewBox="0 0 630 602" fill="none" xmlns="http://www.w3.org/2000/svg">
<path d="M313.436 367.789C367.753 326.014 444.642 334.99 485.19 387.711C525.737 440.433 514.677 517.05 460.36 558.824C406.042 600.599 329.153 591.624 288.606 538.902C248.058 486.181 259.119 409.564 313.436 367.789Z" fill="#667282" stroke="black" stroke-width="3"/>
<ellipse cx="438.522" cy="324.572" rx="13.5" ry="13" transform="rotate(-127.564 438.522 324.572)" fill="black"/>
<circle cx="389.258" cy="311.368" r="13" transform="rotate(-127.564 389.258 311.368)" fill="black"/>
<path d="M565.073 253.734C582.626 240.235 607.32 243.053 620.252 259.867C633.183 276.681 629.569 301.271 612.016 314.771C594.463 328.27 569.769 325.452 556.838 308.638C543.906 291.824 547.52 267.234 565.073 253.734Z" fill="#B73114" stroke="black" stroke-width="3"/>
<path d="M131.514 370.364C167.221 373.527 199.317 378.615 222.337 384.273C233.858 387.105 243.04 390.064 249.25 392.966C252.364 394.422 254.645 395.824 256.096 397.13C257.579 398.466 257.94 399.461 257.88 400.131C257.821 400.802 257.291 401.718 255.596 402.772C253.938 403.802 251.446 404.782 248.125 405.667C241.501 407.433 231.942 408.731 220.103 409.494C196.447 411.017 163.956 410.383 128.249 407.22C92.5425 404.056 60.4462 398.968 37.4265 393.31C25.9052 390.479 16.7236 387.52 10.5132 384.617C7.39957 383.162 5.11852 381.76 3.66773 380.454C2.18447 379.118 1.82364 378.123 1.88304 377.453C1.94244 376.782 2.47256 375.866 4.16749 374.812C5.82534 373.781 8.31737 372.802 11.6384 371.917C18.2623 370.151 27.8211 368.852 39.6608 368.09C63.3165 366.567 95.8075 367.201 131.514 370.364Z" fill="#D4A47A" stroke="black" stroke-width="3"/>
<path d="M209.324 306.695C228.949 320.382 245.836 333.98 257.271 344.885C262.997 350.346 267.307 355.085 269.914 358.792C271.222 360.652 272.047 362.176 272.431 363.348C272.829 364.561 272.656 365.063 272.533 365.24C272.41 365.416 271.998 365.752 270.722 365.798C269.49 365.842 267.775 365.595 265.577 365.009C261.199 363.844 255.262 361.437 248.159 357.949C233.975 350.986 215.381 339.837 195.755 326.149C176.13 312.461 159.244 298.863 147.808 287.958C142.082 282.497 137.772 277.758 135.166 274.052C133.857 272.191 133.033 270.667 132.648 269.496C132.25 268.283 132.424 267.78 132.547 267.604C132.669 267.428 133.081 267.091 134.357 267.046C135.589 267.002 137.304 267.249 139.502 267.834C143.881 268.999 149.817 271.407 156.92 274.894C171.105 281.858 189.699 293.007 209.324 306.695Z" fill="#D4A47A" stroke="black" stroke-width="3"/>
<path d="M250.097 248.939C271.305 271.965 288.663 294.452 299.588 312.176C305.057 321.049 308.872 328.661 310.769 334.514C311.72 337.444 312.161 339.849 312.132 341.705C312.104 343.56 311.614 344.685 310.906 345.337C310.198 345.989 309.037 346.385 307.186 346.261C305.334 346.137 302.973 345.5 300.131 344.313C294.454 341.941 287.179 337.515 278.785 331.337C262.017 318.996 241.029 299.852 219.821 276.826C198.613 253.801 181.254 231.314 170.33 213.59C164.861 204.717 161.046 197.104 159.148 191.252C158.198 188.321 157.757 185.917 157.786 184.061C157.814 182.206 158.303 181.081 159.012 180.429C159.72 179.777 160.881 179.381 162.732 179.505C164.584 179.629 166.944 180.265 169.787 181.453C175.464 183.824 182.738 188.251 191.133 194.429C207.901 206.77 228.889 225.914 250.097 248.939Z" fill="#D4A47A" stroke="black" stroke-width="3"/>
<path d="M140.167 466.69C165.305 463.515 188.297 462.862 205.137 464.354C213.569 465.101 220.376 466.379 225.118 468.105C227.492 468.968 229.269 469.916 230.467 470.905C231.657 471.887 232.183 472.827 232.293 473.701C232.404 474.574 232.128 475.615 231.219 476.862C230.305 478.118 228.819 479.478 226.735 480.905C222.571 483.755 216.296 486.686 208.314 489.506C192.374 495.139 169.941 500.223 144.804 503.398C119.667 506.573 96.6741 507.227 79.8345 505.735C71.4022 504.988 64.5952 503.709 59.853 501.983C57.4798 501.12 55.7027 500.172 54.5046 499.183C53.314 498.201 52.7885 497.261 52.6782 496.388C52.5679 495.514 52.8432 494.473 53.7521 493.226C54.6667 491.97 56.1523 490.61 58.2363 489.184C62.4004 486.333 68.6758 483.402 76.6574 480.582C92.5972 474.949 115.03 469.865 140.167 466.69Z" fill="#D4A47A" stroke="black" stroke-width="3"/>
<path d="M177.816 560.775C199.375 553.774 219.338 548.922 234.174 546.729C241.603 545.631 247.675 545.21 251.993 545.495C254.16 545.638 255.792 545.953 256.908 546.393C258.043 546.841 258.39 547.311 258.487 547.608C258.583 547.905 258.578 548.489 257.923 549.519C257.279 550.53 256.143 551.744 254.474 553.133C251.147 555.9 245.987 559.128 239.329 562.604C226.037 569.546 207.032 577.35 185.473 584.352C163.914 591.354 143.951 596.206 129.116 598.399C121.686 599.497 115.614 599.917 111.296 599.633C109.129 599.49 107.497 599.175 106.382 598.735C105.247 598.287 104.899 597.817 104.803 597.52C104.706 597.223 104.711 596.639 105.367 595.609C106.011 594.598 107.146 593.384 108.815 591.995C112.143 589.228 117.303 586 123.96 582.523C137.253 575.581 156.257 567.777 177.816 560.775Z" fill="#D4A47A" stroke="black" stroke-width="3"/>
<path d="M289.437 246.242C288.984 243.435 290.408 240.229 294.089 236.763C297.738 233.328 303.362 229.88 310.613 226.643C325.098 220.177 345.757 214.693 369.148 211.769C392.538 208.845 414.115 209.049 430.074 211.709C438.063 213.04 444.556 214.974 449.148 217.378C453.781 219.805 456.164 222.535 456.617 225.342C457.07 228.148 455.646 231.354 451.964 234.821C448.316 238.256 442.692 241.703 435.44 244.94C420.955 251.406 400.296 256.89 376.906 259.814C353.516 262.738 331.938 262.535 315.98 259.875C307.99 258.543 301.498 256.61 296.906 254.205C292.272 251.778 289.89 249.048 289.437 246.242Z" fill="#5F6D89" stroke="black" stroke-width="3"/>
<path d="M501.642 203.854C499.817 202.994 498.395 200.677 497.798 196.44C497.212 192.277 497.493 186.675 498.641 179.982C500.933 166.616 506.619 149.245 515.185 131.067C523.75 112.888 533.525 97.4438 542.373 87.1672C546.804 82.0205 550.945 78.2374 554.529 76.039C558.176 73.8021 560.869 73.4235 562.693 74.283C564.517 75.1426 565.94 77.4603 566.536 81.6967C567.123 85.8601 566.842 91.462 565.694 98.1555C563.402 111.521 557.715 128.892 549.15 147.07C540.585 165.249 530.809 180.693 521.962 190.97C517.531 196.117 513.39 199.9 509.806 202.098C506.159 204.335 503.466 204.714 501.642 203.854Z" fill="#C1752A" stroke="black" stroke-width="3"/>
<path d="M484.224 158.287C481.221 158.318 478.103 156.524 475.026 152.699C471.963 148.891 469.116 143.271 466.673 136.181C461.793 122.018 458.635 102.318 458.409 80.4569C458.182 58.5953 460.932 38.835 465.518 24.5735C467.814 17.4349 470.544 11.7571 473.527 7.88626C476.524 3.99822 479.605 2.14026 482.608 2.10919C485.611 2.07811 488.729 3.87192 491.806 7.6971C494.869 11.5054 497.716 17.1254 500.159 24.215C505.039 38.3785 508.197 58.0777 508.423 79.9393C508.65 101.801 505.9 121.561 501.314 135.823C499.018 142.961 496.288 148.639 493.305 152.51C490.308 156.398 487.227 158.256 484.224 158.287Z" fill="#881F18" stroke="black" stroke-width="3"/>
<path d="M480.52 318.989L473.371 218.142M473.371 218.142L444.887 164.877M473.371 218.142L483.259 157.903M473.371 218.142L499.4 199.182M473.371 218.142L455.974 225.877" stroke="black" stroke-width="10"/>
<path d="M449.259 167.325C447.215 169.301 443.77 169.964 438.822 168.923C433.918 167.891 427.875 165.246 421.075 161.145C407.491 152.952 391.186 139.131 375.421 121.607C359.656 104.082 347.494 86.2574 340.558 71.6407C337.086 64.3233 334.963 57.8902 334.313 52.7478C333.657 47.5584 334.536 44.0431 336.58 42.0677C338.624 40.0923 342.069 39.429 347.017 40.4699C351.921 41.5014 357.964 44.1467 364.764 48.2481C378.347 56.4409 394.653 70.2615 410.418 87.7863C426.182 105.311 438.345 123.135 445.28 137.752C448.753 145.07 450.876 151.503 451.526 156.645C452.182 161.834 451.303 165.35 449.259 167.325Z" fill="#E05616" stroke="black" stroke-width="3"/>
</svg>
