<svg width="1353" height="1267" viewBox="0 0 1353 1267" fill="none" xmlns="http://www.w3.org/2000/svg">
<path d="M522.5 1150C522.5 1186.72 492.513 1216.5 455.5 1216.5C418.487 1216.5 388.5 1186.72 388.5 1150C388.5 1113.28 418.487 1083.5 455.5 1083.5C492.513 1083.5 522.5 1113.28 522.5 1150Z" fill="#E0A338" stroke="black" stroke-width="3"/>
<path d="M266.5 1119C266.5 1162.9 230.691 1198.5 186.5 1198.5C142.309 1198.5 106.5 1162.9 106.5 1119C106.5 1075.1 142.309 1039.5 186.5 1039.5C230.691 1039.5 266.5 1075.1 266.5 1119Z" fill="#BD5021" stroke="black" stroke-width="3"/>
<circle cx="643.5" cy="1208.5" r="19.5" fill="black"/>
<ellipse cx="318.5" cy="1181" rx="19.5" ry="19" fill="black"/>
<circle cx="51" cy="957" r="37.5" fill="#E0A338" stroke="black" stroke-width="3"/>
<path d="M685.5 902C685.5 932.087 660.888 956.5 630.5 956.5C600.112 956.5 575.5 932.087 575.5 902C575.5 871.913 600.112 847.5 630.5 847.5C660.888 847.5 685.5 871.913 685.5 902Z" fill="#BD5021" stroke="black" stroke-width="3"/>
<path opacity="0.5" d="M394.624 496.219C165.647 386.771 -99.0991 649.603 38.6837 363.235C176.466 76.8667 477.078 -73.4012 706.055 36.0463C935.032 145.494 973.778 439.098 835.995 725.467C698.213 1011.84 623.601 605.666 394.624 496.219Z" fill="#586773"/>
<circle cx="386.5" cy="228.5" r="19.5" fill="black"/>
<circle cx="643.5" cy="462.5" r="19.5" fill="black"/>
<circle cx="580.5" cy="54.5" r="19.5" fill="black"/>
<path d="M390.857 641.815C390.857 816.317 633.713 902 414.027 902C194.342 902 11 760.538 11 586.036C11 411.535 182.572 300 402.257 300C621.943 300 390.857 467.314 390.857 641.815Z" fill="#586773"/>
<ellipse cx="412.5" cy="860" rx="19.5" ry="19" fill="black"/>
<ellipse cx="109.5" cy="570" rx="19.5" ry="19" fill="black"/>
<circle cx="326.5" cy="600.5" r="19.5" fill="black"/>
<rect x="813" y="714.5" width="606" height="551" fill="#C44915"/>
<path d="M1420 718C1420 851.101 1284.34 959 1117 959C949.658 959 810 851.101 810 718C810 584.899 949.658 477 1117 477C1284.34 477 1420 584.899 1420 718Z" fill="#C44915"/>
<path d="M813 1105L1398 1104" stroke="black" stroke-width="7"/>
<path d="M813 1089L1398 1088" stroke="black" stroke-width="7"/>
<path d="M813 1121L1398 1120" stroke="black" stroke-width="7"/>
<path d="M813 1137L1398 1136" stroke="black" stroke-width="7"/>
<path d="M813 1153L1398 1152" stroke="black" stroke-width="7"/>
<path d="M813 1169L1398 1168" stroke="black" stroke-width="7"/>
<path d="M813 1185L1398 1184" stroke="black" stroke-width="7"/>
<path d="M1113.5 480.478C1113.49 478.545 1111.91 476.988 1109.98 477C1108.04 477.012 1106.49 478.589 1106.5 480.522L1113.5 480.478ZM1106.5 480.522L1111.5 1266.02L1118.5 1265.98L1113.5 480.478L1106.5 480.522Z" fill="black"/>
<path d="M1138.5 480.978C1138.49 479.045 1136.91 477.488 1134.98 477.5C1133.04 477.512 1131.49 479.089 1131.5 481.022L1138.5 480.978ZM1131.5 481.022L1136.5 1266.02L1143.5 1265.98L1138.5 480.978L1131.5 481.022Z" fill="black"/>
<path d="M1089.5 481.482C1089.49 479.549 1087.92 477.99 1085.98 478C1084.05 478.01 1082.49 479.585 1082.5 481.518L1089.5 481.482ZM1082.5 481.518L1086.5 1266.02L1093.5 1265.98L1089.5 481.482L1082.5 481.518Z" fill="black"/>
</svg>
