<svg width="1436" height="1206" viewBox="0 0 1436 1206" fill="none" xmlns="http://www.w3.org/2000/svg">
<path d="M819.739 24.8456C819.739 8.88018 830.603 0 842.695 0C855.543 0 861.967 10.1083 861.967 21.5392C861.967 22.2949 861.873 23.2396 861.778 24.0899H823.896C823.896 37.788 833.154 45.629 844.113 45.629C849.403 45.629 854.977 43.4562 858.755 39.6774L860.928 42.9839C856.771 46.9516 850.159 49.5023 844.113 49.5023C830.792 49.5023 819.739 39.8663 819.739 24.8456ZM824.179 20.4055H857.811C857.338 8.88018 850.442 3.68433 842.601 3.68433C833.91 3.68433 825.88 9.35253 824.179 20.4055Z" fill="white"/>
<path d="M774.593 44.6835H801.8V4.72267H783.095V7.84018C783.095 14.9254 782.528 33.0637 774.593 44.6835ZM764.106 44.6835H769.869C779.127 32.9692 779.127 13.5084 779.127 7.84018V1.13281H805.768V44.6835H812.381V59.7042H808.413V48.3678H768.074V59.7042H764.106V44.6835Z" fill="white"/>
<path d="M739 48.3678V1.13281H765.829V4.72267H742.968V48.3678H739Z" fill="white"/>
<path d="M956.662 336.732V307.696H959.101V328.37C959.101 330.344 958.927 333.074 958.927 333.074H959.043C959.043 333.074 961.076 330.17 962.353 328.37L978.207 307.696H980.472V336.732H978.033V316.001C978.033 314.026 978.207 311.471 978.207 311.471H978.091C978.091 311.471 976.058 314.2 974.781 316.001L958.927 336.732H956.662Z" fill="white"/>
<path d="M900.095 336.732L902.418 307.696H904.74L914.555 326.918C915.484 328.776 916.529 331.157 916.529 331.157H916.645C916.645 331.157 917.632 328.834 918.62 326.918L928.492 307.696H930.815L933.138 336.732H930.699L929.073 316.581C928.956 315.188 929.015 311.587 929.015 311.587H928.898C928.898 311.587 928.318 313.213 926.982 315.768L917.865 333.538H915.368L906.25 315.884C905.031 313.562 904.334 311.587 904.334 311.587H904.218C904.218 311.587 904.276 315.188 904.16 316.581L902.534 336.732H900.095Z" fill="white"/>
<path d="M869.037 329.009C869.037 319.137 881.871 319.021 887.039 319.021H888.956V318.034C888.956 311.588 885.646 309.381 881 309.381C878.038 309.381 875.077 310.368 872.696 312.168L871.302 310.194C873.567 308.22 877.458 307 881.116 307C887.794 307 891.395 310.717 891.395 317.976V336.733H888.956V332.9C888.956 331.332 889.188 330.287 889.188 330.287H889.072C887.62 334.062 883.962 337.43 878.909 337.43C874.206 337.43 869.037 334.816 869.037 329.009ZM871.592 328.835C871.592 331.913 874.089 335.165 879.025 335.165C885.355 335.165 888.956 328.603 888.956 322.854V321.286H887.097C882.161 321.286 871.592 321.286 871.592 328.835Z" fill="white"/>
<path d="M852.034 336.732V309.961H841V307.696H865.506V309.961H854.473V336.732H852.034Z" fill="white"/>
<path d="M801.5 210C764.919 210 753 177.058 753 135C753 93.1492 764.919 60 801.5 60C838.081 60 850 93.1492 850 135C850 177.058 838.081 210 801.5 210ZM801.5 201.298C832.121 201.298 840.752 172.5 840.752 135C840.752 97.7072 832.121 68.7017 801.5 68.7017C770.879 68.7017 762.248 97.7072 762.248 135C762.248 172.5 770.879 201.298 801.5 201.298Z" fill="#C63A19"/>
<path d="M538.5 210C501.919 210 490 177.058 490 135C490 93.1492 501.919 60 538.5 60C575.081 60 587 93.1492 587 135C587 177.058 575.081 210 538.5 210ZM538.5 201.298C569.121 201.298 577.752 172.5 577.752 135C577.752 97.7072 569.121 68.7017 538.5 68.7017C507.879 68.7017 499.248 97.7072 499.248 135C499.248 172.5 507.879 201.298 538.5 201.298Z" fill="#C63A19"/>
<circle cx="598.5" cy="760.5" r="52.5" fill="#C63A19"/>
<circle cx="753" cy="756" r="46" fill="#C63A19"/>
<circle cx="896" cy="761" r="44" fill="#C63A19"/>
<circle cx="1136" cy="787" r="31" fill="#C63A19"/>
<path d="M1113.98 983.324L1114.3 981.524C1114.52 980.372 1115.03 979.316 1115.85 978.356C1116.66 977.396 1117.49 976.652 1118.33 976.124C1119.2 975.596 1119.96 975.008 1120.64 974.36C1121.33 973.712 1121.68 973.064 1121.68 972.416C1121.68 971.888 1121.48 971.468 1121.07 971.156C1120.66 970.82 1120.14 970.652 1119.52 970.652C1118.46 970.652 1117.23 971.168 1115.81 972.2L1112.97 967.628C1113.86 966.932 1114.98 966.32 1116.35 965.792C1117.74 965.264 1119.14 965 1120.53 965C1122.64 965 1124.45 965.576 1125.96 966.728C1127.48 967.88 1128.23 969.464 1128.23 971.48C1128.23 972.656 1127.97 973.736 1127.44 974.72C1126.94 975.704 1126.3 976.508 1125.53 977.132C1124.79 977.756 1124.03 978.332 1123.26 978.86C1122.52 979.388 1121.85 979.916 1121.25 980.444C1120.65 980.972 1120.3 981.5 1120.2 982.028L1119.95 983.324H1113.98ZM1112.61 991.28L1113.65 985.88H1119.34L1118.3 991.28H1112.61Z" fill="white"/>
<path d="M1088.1 991.28L1091.73 972.74H1097.96L1096.67 979.256H1098.54L1103.04 972.74H1110.17L1103 982.316V982.388L1107.29 991.28H1100.55L1097.6 984.476H1095.66L1094.33 991.28H1088.1Z" fill="white"/>
<path d="M1065.81 991.28L1069.44 972.74H1075.2L1073.66 980.552L1073.19 982.46H1073.26C1073.6 981.908 1074.08 981.272 1074.7 980.552L1081.4 972.74H1087.52L1083.88 991.28H1078.12L1079.63 983.54L1080.1 981.596H1080.03C1079.64 982.196 1079.16 982.832 1078.59 983.504L1071.93 991.28H1065.81Z" fill="white"/>
<path d="M1051.32 991.28L1053.91 977.96H1048.29L1049.34 972.74H1066.83L1065.79 977.96H1060.14L1057.54 991.28H1051.32Z" fill="white"/>
<path d="M1027.45 986.817C1027.45 985.521 1027.82 984.393 1028.56 983.433C1029.33 982.449 1030.33 981.705 1031.55 981.201C1032.8 980.697 1034.06 980.325 1035.33 980.085C1036.63 979.845 1037.92 979.725 1039.22 979.725H1039.51C1039.58 979.413 1039.61 979.161 1039.61 978.969C1039.61 977.889 1038.82 977.349 1037.24 977.349C1035.92 977.349 1034.13 977.913 1031.87 979.041L1030.54 974.361C1031.36 973.905 1032.52 973.449 1034.03 972.993C1035.57 972.537 1037.05 972.309 1038.46 972.309C1039.33 972.309 1040.15 972.405 1040.95 972.597C1041.74 972.789 1042.52 973.089 1043.29 973.497C1044.05 973.905 1044.67 974.517 1045.12 975.333C1045.58 976.149 1045.81 977.109 1045.81 978.213C1045.81 978.693 1045.75 979.293 1045.63 980.013L1043.47 991.281H1037.78L1037.99 990.165L1038.32 989.013H1038.25C1037.72 989.685 1036.97 990.309 1036.01 990.885C1035.08 991.437 1034 991.713 1032.77 991.713C1031.31 991.713 1030.05 991.281 1028.99 990.417C1027.96 989.529 1027.45 988.329 1027.45 986.817ZM1033.53 985.773C1033.53 986.637 1034.05 987.069 1035.08 987.069C1035.87 987.069 1036.64 986.733 1037.38 986.061C1038.15 985.365 1038.61 984.633 1038.75 983.865L1038.86 983.289H1038.21C1037.78 983.289 1037.33 983.325 1036.88 983.397C1036.45 983.445 1035.95 983.553 1035.4 983.721C1034.85 983.865 1034.39 984.117 1034.03 984.477C1033.7 984.837 1033.53 985.269 1033.53 985.773Z" fill="white"/>
<path d="M1011.18 991.353L1009.81 998.481H1003.62L1008.59 972.741H1014.21L1014.03 973.677L1013.7 974.865H1013.77C1015.17 973.161 1017.03 972.309 1019.35 972.309C1021.56 972.309 1023.3 973.041 1024.57 974.505C1025.87 975.945 1026.52 977.901 1026.52 980.373C1026.52 983.613 1025.49 986.313 1023.42 988.473C1021.36 990.633 1019.01 991.713 1016.37 991.713C1014.33 991.713 1012.71 991.065 1011.51 989.769H1011.43C1011.39 990.201 1011.3 990.729 1011.18 991.353ZM1012.69 983.289C1012.69 984.249 1012.93 985.041 1013.41 985.665C1013.89 986.265 1014.61 986.565 1015.57 986.565C1016.75 986.565 1017.82 986.037 1018.78 984.981C1019.74 983.925 1020.22 982.545 1020.22 980.841C1020.22 979.833 1019.95 979.041 1019.43 978.465C1018.92 977.865 1018.23 977.565 1017.34 977.565C1016.26 977.565 1015.21 978.105 1014.21 979.185C1013.2 980.241 1012.69 981.609 1012.69 983.289Z" fill="white"/>
<path d="M989.46 986.348H994.212L995.868 977.672H992.628L992.484 978.356C991.788 981.716 990.78 984.38 989.46 986.348ZM979.128 995.6L980.892 986.348H983.052C984.9 983.924 986.136 981.092 986.76 977.852L987.732 972.74H1003.03L1000.4 986.348H1003.07L1001.27 995.6H995.724L996.552 991.28H985.68L984.852 995.6H979.128Z" fill="white"/>
<path d="M961.528 986.817C961.528 985.521 961.9 984.393 962.644 983.433C963.412 982.449 964.408 981.705 965.632 981.201C966.88 980.697 968.14 980.325 969.412 980.085C970.708 979.845 972.004 979.725 973.3 979.725H973.588C973.66 979.413 973.696 979.161 973.696 978.969C973.696 977.889 972.904 977.349 971.32 977.349C970 977.349 968.212 977.913 965.956 979.041L964.624 974.361C965.44 973.905 966.604 973.449 968.116 972.993C969.652 972.537 971.128 972.309 972.544 972.309C973.408 972.309 974.236 972.405 975.028 972.597C975.82 972.789 976.6 973.089 977.368 973.497C978.136 973.905 978.748 974.517 979.204 975.333C979.66 976.149 979.888 977.109 979.888 978.213C979.888 978.693 979.828 979.293 979.708 980.013L977.548 991.281H971.86L972.076 990.165L972.4 989.013H972.328C971.8 989.685 971.056 990.309 970.096 990.885C969.16 991.437 968.08 991.713 966.856 991.713C965.392 991.713 964.132 991.281 963.076 990.417C962.044 989.529 961.528 988.329 961.528 986.817ZM967.612 985.773C967.612 986.637 968.128 987.069 969.16 987.069C969.952 987.069 970.72 986.733 971.464 986.061C972.232 985.365 972.688 984.633 972.832 983.865L972.94 983.289H972.292C971.86 983.289 971.416 983.325 970.96 983.397C970.528 983.445 970.036 983.553 969.484 983.721C968.932 983.865 968.476 984.117 968.116 984.477C967.78 984.837 967.612 985.269 967.612 985.773Z" fill="white"/>
<path d="M941.355 991.28L944.991 972.74H954.927C956.655 972.74 958.023 973.124 959.031 973.892C960.039 974.636 960.543 975.68 960.543 977.024C960.543 977.936 960.279 978.812 959.751 979.652C959.247 980.492 958.491 981.152 957.483 981.632V981.668C958.227 981.956 958.779 982.448 959.139 983.144C959.523 983.84 959.715 984.596 959.715 985.412C959.715 987.236 958.899 988.676 957.267 989.732C955.659 990.764 953.787 991.28 951.651 991.28H941.355ZM949.779 980.048H952.119C952.719 980.048 953.235 979.844 953.667 979.436C954.123 979.004 954.351 978.512 954.351 977.96C954.351 977.048 953.811 976.592 952.731 976.592H950.463L949.779 980.048ZM948.339 987.392H951.075C951.699 987.392 952.251 987.176 952.731 986.744C953.235 986.312 953.487 985.772 953.487 985.124C953.487 984.164 952.935 983.684 951.831 983.684H949.059L948.339 987.392Z" fill="white"/>
<path d="M920.086 991.28L923.722 972.74H929.95L928.654 979.256H930.526L935.026 972.74H942.154L934.99 982.316V982.388L939.274 991.28H932.542L929.59 984.476H927.646L926.314 991.28H920.086Z" fill="white"/>
<path d="M888.797 991.28L892.433 972.74H898.193L896.645 980.552L896.177 982.46H896.249C896.585 981.908 897.065 981.272 897.689 980.552L904.385 972.74H910.505L906.869 991.28H901.109L902.621 983.54L903.089 981.596H903.017C902.633 982.196 902.153 982.832 901.577 983.504L894.917 991.28H888.797Z" fill="white"/>
<path d="M865.949 991.46L866.993 986.024C867.473 985.952 867.905 985.82 868.289 985.628C868.697 985.436 869.129 985.1 869.585 984.62C870.065 984.14 870.497 983.396 870.881 982.388C871.265 981.38 871.601 980.144 871.889 978.68L873.041 972.74H888.233L884.633 991.28H878.405L881.033 977.672H877.937L877.757 978.716C876.941 982.844 875.633 986 873.833 988.184C872.033 990.368 869.405 991.46 865.949 991.46Z" fill="white"/>
<path d="M841 991.28L846.004 965.54H852.304L849.964 977.564L848.812 981.956H848.884C850.012 980.156 851.02 978.692 851.908 977.564L861.376 965.54H867.748L862.744 991.28H856.444L858.784 979.292C858.88 978.812 859.012 978.212 859.18 977.492C859.372 976.748 859.54 976.136 859.684 975.656L859.9 974.9H859.828C858.724 976.7 857.728 978.164 856.84 979.292L847.336 991.28H841Z" fill="white"/>
<path d="M398 1043H485V1144H398V1043Z" fill="#C63A19"/>
<path d="M985 1032H1084V1156H985V1032Z" fill="#C63A19"/>
<path d="M1114.3 200.173L1143.72 158.513C1146.07 154.983 1149.13 151.452 1149.13 151.452V150.981C1135.01 149.098 1120.42 137.565 1120.42 117.324C1120.42 93.7869 1138.07 82.4893 1162.08 82.4893H1198.33V200.173H1188.44V152.629H1159.73L1126.77 200.173H1114.3ZM1161.14 143.685H1188.44V91.4332H1162.55C1143.01 91.4332 1131.01 98.965 1131.01 117.324C1131.01 134.27 1144.19 143.685 1161.14 143.685Z" fill="white"/>
<path d="M989.088 200.173V82.4893H998.973V166.28C998.973 174.283 998.267 185.345 998.267 185.345H998.738C998.738 185.345 1006.98 173.577 1012.15 166.28L1076.41 82.4893H1085.59V200.173H1075.7V116.147C1075.7 108.144 1076.41 97.7882 1076.41 97.7882H1075.94C1075.94 97.7882 1067.7 108.85 1062.52 116.147L998.267 200.173H989.088Z" fill="white"/>
<path d="M895.77 200.173V82.4893H962.614V91.4332H905.655V200.173H895.77Z" fill="white"/>
<path d="M741.34 140.627C741.34 106.264 768.643 79.667 802.3 79.667C835.958 79.667 863.261 106.264 863.261 140.627C863.261 175.697 835.958 203 802.3 203C768.643 203 741.34 175.697 741.34 140.627ZM751.696 140.627C751.696 170.519 774.291 193.35 802.3 193.35C830.309 193.35 852.904 170.519 852.904 140.627C852.904 111.442 830.309 89.3171 802.3 89.3171C774.291 89.3171 751.696 111.442 751.696 140.627Z" fill="white"/>
<path d="M613.37 201.115V191.935C635.495 188.405 643.026 161.808 643.026 117.559V82.4893H708.93V200.173H699.044V91.6686H652.912V117.559C652.912 174.989 639.731 198.055 613.37 201.115Z" fill="white"/>
<path d="M477.701 140.627C477.701 106.264 505.004 79.667 538.662 79.667C572.319 79.667 599.622 106.264 599.622 140.627C599.622 175.697 572.319 203 538.662 203C505.004 203 477.701 175.697 477.701 140.627ZM488.057 140.627C488.057 170.519 510.653 193.35 538.662 193.35C566.67 193.35 589.266 170.519 589.266 140.627C589.266 111.442 566.67 89.3171 538.662 89.3171C510.653 89.3171 488.057 111.442 488.057 140.627Z" fill="white"/>
<path d="M348.722 200.173V82.4893H358.607V166.28C358.607 174.283 357.901 185.345 357.901 185.345H358.372C358.372 185.345 366.61 173.577 371.788 166.28L436.043 82.4893H445.223V200.173H435.337V116.147C435.337 108.144 436.043 97.7882 436.043 97.7882H435.573C435.573 97.7882 427.335 108.85 422.157 116.147L357.901 200.173H348.722Z" fill="white"/>
<path d="M210 134.503C210 96.8446 216.59 70.7187 254.014 52.36L298.969 30L303.441 38.7086L257.78 61.304C228.123 75.8968 220.592 95.4323 218.473 122.264H218.944C229.536 100.61 246.011 93.7848 265.547 93.7848C293.556 93.7848 314.974 113.556 314.974 148.155C314.974 180.636 293.556 202.996 263.193 202.996C225.77 202.996 210 173.339 210 134.503ZM221.768 147.684C221.768 176.87 240.362 193.581 263.193 193.581C286.024 193.581 304.618 176.87 304.618 148.39C304.618 119.675 286.024 103.199 264.37 103.199C238.715 103.199 221.768 122.97 221.768 147.684Z" fill="white"/>
<path d="M1088.54 462.62C1088.54 420.46 1143.35 419.964 1165.42 419.964H1173.61V415.748C1173.61 388.22 1159.47 378.796 1139.63 378.796C1126.98 378.796 1114.34 383.012 1104.17 390.7L1098.22 382.268C1107.89 373.836 1124.5 368.628 1140.13 368.628C1168.65 368.628 1184.02 384.5 1184.02 415.5V495.604H1173.61V479.236C1173.61 472.54 1174.6 468.076 1174.6 468.076H1174.1C1167.9 484.196 1152.28 498.58 1130.7 498.58C1110.62 498.58 1088.54 487.42 1088.54 462.62ZM1099.46 461.876C1099.46 475.02 1110.12 488.908 1131.2 488.908C1158.23 488.908 1173.61 460.884 1173.61 436.332V429.636H1165.67C1144.59 429.636 1099.46 429.636 1099.46 461.876Z" fill="white"/>
<path d="M984.673 495.602V371.602H995.089V426.41H1016.66L1057.34 371.602H1070.48L1025.59 430.626V431.122L1075.44 495.602H1061.8L1016.66 436.082H995.089V495.602H984.673Z" fill="white"/>
<path d="M841.298 545.204V371.604H851.714V386.484C851.714 392.188 850.97 396.404 850.97 396.404H851.466C858.906 379.044 875.77 368.628 896.106 368.628C929.338 368.628 949.674 395.164 949.674 433.604C949.674 473.036 926.61 498.58 894.618 498.58C875.77 498.58 859.154 488.164 851.218 470.556H850.722C850.722 470.556 851.714 475.02 851.714 481.468V545.204H841.298ZM851.466 433.852C851.466 461.38 866.842 488.412 894.618 488.412C918.922 488.412 938.762 468.324 938.762 433.604C938.762 400.124 920.906 378.796 895.61 378.796C872.794 378.796 851.466 394.916 851.466 433.852Z" fill="white"/>
<path d="M696.51 433.852C696.51 391.94 725.03 368.628 756.774 368.628C790.502 368.628 807.366 395.164 807.366 425.172C807.366 427.156 807.118 429.636 806.87 431.868H707.422C707.422 467.828 731.726 488.412 760.494 488.412C774.382 488.412 789.014 482.708 798.934 472.788L804.638 481.468C793.726 491.884 776.366 498.58 760.494 498.58C725.526 498.58 696.51 473.284 696.51 433.852ZM708.166 422.196H796.454C795.214 391.94 777.11 378.3 756.526 378.3C733.71 378.3 712.63 393.18 708.166 422.196Z" fill="white"/>
<path d="M527.228 432.856C527.228 395.16 554.756 370.856 593.692 368.872V322H604.108V368.872C643.044 370.856 670.572 395.16 670.572 432.856C670.572 471.296 643.044 496.344 604.108 498.328V545.2H593.692V498.328C554.756 496.344 527.228 471.296 527.228 432.856ZM604.108 488.408C637.092 486.424 659.66 465.84 659.66 432.856C659.66 400.616 637.092 380.776 604.108 379.04V488.408ZM538.14 432.856C538.14 465.84 560.708 486.424 593.692 488.408V379.04C560.708 380.776 538.14 400.616 538.14 432.856Z" fill="white"/>
<path d="M390.828 495.602V371.602H401.244V459.89C401.244 468.322 400.5 479.978 400.5 479.978H400.996C400.996 479.978 409.676 467.578 415.132 459.89L482.836 371.602H492.508V495.602H482.092V407.066C482.092 398.634 482.836 387.722 482.836 387.722H482.34C482.34 387.722 473.66 399.378 468.204 407.066L400.5 495.602H390.828Z" fill="white"/>
<path d="M246 495.602V371.602H256.416V485.93H333.544V371.602H343.96V485.93H361.32V525.362H350.904V495.602H246Z" fill="white"/>
<path d="M521.606 643.624V641.602C521.606 640.398 521.85 639.308 522.337 638.333C522.854 637.358 523.47 636.541 524.187 635.882C524.904 635.194 525.606 634.548 526.294 633.946C527.011 633.315 527.613 632.599 528.101 631.796C528.617 630.993 528.875 630.118 528.875 629.172C528.875 627.968 528.402 626.964 527.456 626.161C526.538 625.33 525.377 624.914 523.972 624.914C522.223 624.914 520.603 625.516 519.112 626.72L516.789 623.753C518.854 621.918 521.348 621 524.273 621C526.768 621 528.889 621.731 530.638 623.194C532.388 624.656 533.262 626.548 533.262 628.871C533.262 630.19 533.004 631.38 532.488 632.441C531.972 633.473 531.341 634.348 530.595 635.064C529.85 635.753 529.09 636.426 528.316 637.086C527.57 637.717 526.94 638.434 526.423 639.237C525.907 640.039 525.649 640.914 525.649 641.86V643.624H521.606ZM521.477 651.968V647.71H525.778V651.968H521.477Z" fill="white"/>
<path d="M500.57 651.967V630.204H514.205V633.774H504.742V651.967H500.57Z" fill="white"/>
<path d="M476.477 656.484C477.28 657.114 478.112 657.43 478.972 657.43C480.721 657.43 482.04 656.355 482.929 654.204L484.004 651.709L474.886 630.204H479.574L485.036 644.441L485.853 647.064H485.939C486.169 646.089 486.413 645.229 486.671 644.484L491.961 630.204H496.477L486.241 655.881C485.61 657.545 484.663 658.806 483.402 659.666C482.169 660.555 480.764 661 479.187 661C478.47 661 477.767 660.885 477.079 660.656C476.391 660.426 475.875 660.197 475.531 659.967L475.015 659.666L476.477 656.484Z" fill="white"/>
<path d="M452.352 660.569V630.204H456.223V632.139L456.093 633.774H456.18C456.868 632.483 457.857 631.48 459.147 630.763C460.438 630.046 461.886 629.688 463.491 629.688C466.416 629.688 468.739 630.734 470.459 632.827C472.179 634.92 473.04 637.673 473.04 641.085C473.04 644.526 472.122 647.293 470.287 649.386C468.452 651.451 466.086 652.483 463.19 652.483C460.294 652.483 458.043 651.25 456.438 648.784H456.352C456.466 649.3 456.524 649.931 456.524 650.677V660.569H452.352ZM456.395 641.171C456.395 643.236 456.939 645.042 458.029 646.591C459.147 648.11 460.653 648.87 462.545 648.87C464.323 648.87 465.814 648.182 467.018 646.806C468.222 645.401 468.825 643.508 468.825 641.128C468.825 638.777 468.251 636.899 467.104 635.494C465.986 634.06 464.509 633.343 462.674 633.343C460.896 633.343 459.405 634.003 458.201 635.322C456.997 636.641 456.395 638.591 456.395 641.171Z" fill="white"/>
<path d="M429.88 651.967V630.204H434.052V638.978H437.106L443.041 630.204H447.772L440.504 640.57V640.656L448.633 651.967H443.686L437.192 642.548H434.052V651.967H429.88Z" fill="white"/>
<path d="M403.289 651.967V633.774H395.719V630.204H415.031V633.774H407.418V651.967H403.289Z" fill="white"/>
<path d="M372.933 641.085C372.933 637.673 373.965 634.92 376.029 632.827C378.094 630.734 380.703 629.688 383.857 629.688C386.811 629.688 389.119 630.662 390.782 632.612C392.445 634.533 393.277 636.956 393.277 639.881C393.277 640.254 393.219 640.842 393.105 641.644H377.277C377.391 643.91 378.151 645.687 379.556 646.978C380.99 648.239 382.725 648.87 384.761 648.87C387.14 648.87 389.277 648.024 391.169 646.333L392.933 649.386C391.9 650.333 390.61 651.092 389.062 651.666C387.542 652.211 386.022 652.483 384.502 652.483C381.119 652.483 378.338 651.408 376.158 649.257C374.008 647.078 372.933 644.354 372.933 641.085ZM377.406 638.634H389.062C389.004 636.827 388.474 635.422 387.47 634.419C386.495 633.415 385.262 632.913 383.771 632.913C382.137 632.913 380.732 633.429 379.556 634.462C378.409 635.465 377.692 636.856 377.406 638.634Z" fill="white"/>
<path d="M340.188 651.967L347.199 640.785V640.699L340.791 630.204H345.221L350.554 639.107H353.651V630.204H357.608V639.107H360.705L366.081 630.204H370.468L364.102 640.699V640.785L371.113 651.967H366.425L360.748 642.677H357.608V651.967H353.651V642.677H350.554L344.834 651.967H340.188Z" fill="white"/>
<path d="M314.885 641.042C314.885 637.802 316.017 635.107 318.283 632.956C320.548 630.777 323.315 629.688 326.584 629.688C329.881 629.688 332.662 630.763 334.928 632.913C337.193 635.064 338.326 637.773 338.326 641.042C338.326 644.311 337.193 647.035 334.928 649.214C332.662 651.394 329.895 652.483 326.627 652.483C323.358 652.483 320.577 651.394 318.283 649.214C316.017 647.035 314.885 644.311 314.885 641.042ZM319.143 641.042C319.143 643.308 319.86 645.186 321.293 646.677C322.756 648.139 324.533 648.87 326.627 648.87C328.691 648.87 330.455 648.125 331.917 646.634C333.379 645.143 334.111 643.279 334.111 641.042C334.111 638.806 333.379 636.956 331.917 635.494C330.455 634.032 328.691 633.3 326.627 633.3C324.533 633.3 322.756 634.032 321.293 635.494C319.86 636.956 319.143 638.806 319.143 641.042Z" fill="white"/>
<path d="M283.984 651.967L285.877 630.204H290.522L296.07 642.505L297.275 645.43H297.361C297.791 644.369 298.192 643.394 298.565 642.505L304.242 630.204H308.802L310.694 651.967H306.651L305.705 639.021L305.748 635.279H305.662C305.289 636.283 304.83 637.344 304.285 638.462L299.124 649.344H295.554L290.393 638.505L289.017 635.279H288.931L288.974 639.021L288.027 651.967H283.984Z" fill="white"/>
<path d="M244 651.967L254.882 621.602H259.398L270.279 651.967H265.892L262.839 643.236H251.398L248.344 651.967H244ZM252.516 639.709H261.72L258.366 630.118L257.161 625.774H257.075C256.645 627.609 256.258 629.057 255.914 630.118L252.516 639.709Z" fill="white"/>
<path d="M247 1032H342V1149H247V1032Z" fill="#C63A19"/>
<path d="M1089.54 789.62C1089.54 747.46 1144.35 746.964 1166.42 746.964H1174.61V742.748C1174.61 715.22 1160.47 705.796 1140.63 705.796C1127.98 705.796 1115.34 710.012 1105.17 717.7L1099.22 709.268C1108.89 700.836 1125.5 695.628 1141.13 695.628C1169.65 695.628 1185.02 711.5 1185.02 742.5V822.604H1174.61V806.236C1174.61 799.54 1175.6 795.076 1175.6 795.076H1175.1C1168.9 811.196 1153.28 825.58 1131.7 825.58C1111.62 825.58 1089.54 814.42 1089.54 789.62ZM1100.46 788.876C1100.46 802.02 1111.12 815.908 1132.2 815.908C1159.23 815.908 1174.61 787.884 1174.61 763.332V756.636H1166.67C1145.59 756.636 1100.46 756.636 1100.46 788.876Z" fill="white"/>
<path d="M985.673 822.602V698.602H996.089V753.41H1017.66L1058.34 698.602H1071.48L1026.59 757.626V758.122L1076.44 822.602H1062.8L1017.66 763.082H996.089V822.602H985.673Z" fill="white"/>
<path d="M842.298 872.204V698.604H852.714V713.484C852.714 719.188 851.97 723.404 851.97 723.404H852.466C859.906 706.044 876.77 695.628 897.106 695.628C930.338 695.628 950.674 722.164 950.674 760.604C950.674 800.036 927.61 825.58 895.618 825.58C876.77 825.58 860.154 815.164 852.218 797.556H851.722C851.722 797.556 852.714 802.02 852.714 808.468V872.204H842.298ZM852.466 760.852C852.466 788.38 867.842 815.412 895.618 815.412C919.922 815.412 939.762 795.324 939.762 760.604C939.762 727.124 921.906 705.796 896.61 705.796C873.794 705.796 852.466 721.916 852.466 760.852Z" fill="white"/>
<path d="M697.51 760.852C697.51 718.94 726.03 695.628 757.774 695.628C791.502 695.628 808.366 722.164 808.366 752.172C808.366 754.156 808.118 756.636 807.87 758.868H708.422C708.422 794.828 732.726 815.412 761.494 815.412C775.382 815.412 790.014 809.708 799.934 799.788L805.638 808.468C794.726 818.884 777.366 825.58 761.494 825.58C726.526 825.58 697.51 800.284 697.51 760.852ZM709.166 749.196H797.454C796.214 718.94 778.11 705.3 757.526 705.3C734.71 705.3 713.63 720.18 709.166 749.196Z" fill="white"/>
<path d="M528.228 759.856C528.228 722.16 555.756 697.856 594.692 695.872V649H605.108V695.872C644.044 697.856 671.572 722.16 671.572 759.856C671.572 798.296 644.044 823.344 605.108 825.328V872.2H594.692V825.328C555.756 823.344 528.228 798.296 528.228 759.856ZM605.108 815.408C638.092 813.424 660.66 792.84 660.66 759.856C660.66 727.616 638.092 707.776 605.108 706.04V815.408ZM539.14 759.856C539.14 792.84 561.708 813.424 594.692 815.408V706.04C561.708 707.776 539.14 727.616 539.14 759.856Z" fill="white"/>
<path d="M391.828 822.602V698.602H402.244V786.89C402.244 795.322 401.5 806.978 401.5 806.978H401.996C401.996 806.978 410.676 794.578 416.132 786.89L483.836 698.602H493.508V822.602H483.092V734.066C483.092 725.634 483.836 714.722 483.836 714.722H483.34C483.34 714.722 474.66 726.378 469.204 734.066L401.5 822.602H391.828Z" fill="white"/>
<path d="M247 822.602V698.602H257.416V812.93H334.544V698.602H344.96V812.93H362.32V852.362H351.904V822.602H247Z" fill="white"/>
<line x1="-4.99826" y1="690.5" x2="1435" y2="691.5" stroke="black" stroke-width="5"/>
<line x1="-3.99826" y1="829.5" x2="1436" y2="830.5" stroke="black" stroke-width="5"/>
<path d="M1088.54 1122.62C1088.54 1080.46 1143.35 1079.96 1165.42 1079.96H1173.61V1075.75C1173.61 1048.22 1159.47 1038.8 1139.63 1038.8C1126.98 1038.8 1114.34 1043.01 1104.17 1050.7L1098.22 1042.27C1107.89 1033.84 1124.5 1028.63 1140.13 1028.63C1168.65 1028.63 1184.02 1044.5 1184.02 1075.5V1155.6H1173.61V1139.24C1173.61 1132.54 1174.6 1128.08 1174.6 1128.08H1174.1C1167.9 1144.2 1152.28 1158.58 1130.7 1158.58C1110.62 1158.58 1088.54 1147.42 1088.54 1122.62ZM1099.46 1121.88C1099.46 1135.02 1110.12 1148.91 1131.2 1148.91C1158.23 1148.91 1173.61 1120.88 1173.61 1096.33V1089.64H1165.67C1144.59 1089.64 1099.46 1089.64 1099.46 1121.88Z" fill="white"/>
<path d="M984.673 1155.6V1031.6H995.089V1086.41H1016.66L1057.34 1031.6H1070.48L1025.59 1090.63V1091.12L1075.44 1155.6H1061.8L1016.66 1096.08H995.089V1155.6H984.673Z" fill="white"/>
<path d="M841.298 1205.2V1031.6H851.714V1046.48C851.714 1052.19 850.97 1056.4 850.97 1056.4H851.466C858.906 1039.04 875.77 1028.63 896.106 1028.63C929.338 1028.63 949.674 1055.16 949.674 1093.6C949.674 1133.04 926.61 1158.58 894.618 1158.58C875.77 1158.58 859.154 1148.16 851.218 1130.56H850.722C850.722 1130.56 851.714 1135.02 851.714 1141.47V1205.2H841.298ZM851.466 1093.85C851.466 1121.38 866.842 1148.41 894.618 1148.41C918.922 1148.41 938.762 1128.32 938.762 1093.6C938.762 1060.12 920.906 1038.8 895.61 1038.8C872.794 1038.8 851.466 1054.92 851.466 1093.85Z" fill="white"/>
<path d="M696.51 1093.85C696.51 1051.94 725.03 1028.63 756.774 1028.63C790.502 1028.63 807.366 1055.16 807.366 1085.17C807.366 1087.16 807.118 1089.64 806.87 1091.87H707.422C707.422 1127.83 731.726 1148.41 760.494 1148.41C774.382 1148.41 789.014 1142.71 798.934 1132.79L804.638 1141.47C793.726 1151.88 776.366 1158.58 760.494 1158.58C725.526 1158.58 696.51 1133.28 696.51 1093.85ZM708.166 1082.2H796.454C795.214 1051.94 777.11 1038.3 756.526 1038.3C733.71 1038.3 712.63 1053.18 708.166 1082.2Z" fill="white"/>
<path d="M527.228 1092.86C527.228 1055.16 554.756 1030.86 593.692 1028.87V982H604.108V1028.87C643.044 1030.86 670.572 1055.16 670.572 1092.86C670.572 1131.3 643.044 1156.34 604.108 1158.33V1205.2H593.692V1158.33C554.756 1156.34 527.228 1131.3 527.228 1092.86ZM604.108 1148.41C637.092 1146.42 659.66 1125.84 659.66 1092.86C659.66 1060.62 637.092 1040.78 604.108 1039.04V1148.41ZM538.14 1092.86C538.14 1125.84 560.708 1146.42 593.692 1148.41V1039.04C560.708 1040.78 538.14 1060.62 538.14 1092.86Z" fill="white"/>
<path d="M390.828 1155.6V1031.6H401.244V1119.89C401.244 1128.32 400.5 1139.98 400.5 1139.98H400.996C400.996 1139.98 409.676 1127.58 415.132 1119.89L482.836 1031.6H492.508V1155.6H482.092V1067.07C482.092 1058.63 482.836 1047.72 482.836 1047.72H482.34C482.34 1047.72 473.66 1059.38 468.204 1067.07L400.5 1155.6H390.828Z" fill="white"/>
<path d="M246 1155.6V1031.6H256.416V1145.93H333.544V1031.6H343.96V1145.93H361.32V1185.36H350.904V1155.6H246Z" fill="white"/>
<line x1="-5.99826" y1="1023.5" x2="1434" y2="1024.5" stroke="black" stroke-width="5"/>
<line x1="-4.99826" y1="502.5" x2="1435" y2="503.5" stroke="black" stroke-width="5"/>
<line x1="-4.99826" y1="204.5" x2="1435" y2="205.5" stroke="black" stroke-width="5"/>
<line x1="-5.99826" y1="363.5" x2="1434" y2="364.5" stroke="black" stroke-width="5"/>
<line x1="-4.99826" y1="77.5" x2="1435" y2="78.5" stroke="black" stroke-width="5"/>
<line x1="-4.99826" y1="1162.5" x2="1435" y2="1163.5" stroke="black" stroke-width="5"/>
</svg>
