<svg width="704" height="1020" viewBox="0 0 704 1020" fill="none" xmlns="http://www.w3.org/2000/svg">
<rect width="704" height="1020" fill="#E7DCC8"/>
<rect opacity="0.5" width="363" height="1020" fill="#D4A47A"/>
<path d="M141.352 629L143.852 632.5" stroke="black" stroke-width="3" stroke-linecap="round"/>
<path d="M147.852 626L144.852 633" stroke="black" stroke-width="3" stroke-linecap="round"/>
<path d="M140.852 602L144.352 604.5" stroke="black" stroke-width="3" stroke-linecap="round"/>
<path d="M148.852 602.5L145.852 609" stroke="black" stroke-width="3" stroke-linecap="round"/>
<path d="M138.852 561.5L143.852 568.5" stroke="black" stroke-width="3" stroke-linecap="round"/>
<path d="M154.852 520L143.852 535" stroke="black" stroke-width="3"/>
<path opacity="0.5" d="M597.672 949.219C581.335 937.64 577.477 915.01 589.056 898.673C600.634 882.335 623.264 878.477 639.602 890.056C655.939 901.634 659.797 924.265 648.219 940.602C636.64 956.939 614.01 960.797 597.672 949.219Z" fill="#C63A19" stroke="black" stroke-width="3"/>
<path opacity="0.5" d="M121.672 647.219C105.335 635.64 101.477 613.01 113.056 596.673C124.634 580.335 147.264 576.477 163.602 588.056C179.939 599.634 183.797 622.265 172.219 638.602C160.64 654.939 138.01 658.797 121.672 647.219Z" fill="#C63A19" stroke="black" stroke-width="3"/>
<path d="M652.477 105.014C643.322 106.401 634.919 106.513 628.754 105.607C625.662 105.152 623.219 104.454 621.542 103.591C619.826 102.709 619.207 101.821 619.1 101.114C618.993 100.407 619.321 99.3748 620.698 98.024C622.045 96.703 624.17 95.3122 626.989 93.9617C632.609 91.2691 640.667 88.8865 649.822 87.4989C658.977 86.1114 667.379 85.9991 673.545 86.9055C676.637 87.3602 679.079 88.0587 680.757 88.9213C682.472 89.8034 683.092 90.6918 683.199 91.3987C683.306 92.1057 682.978 93.1377 681.601 94.4885C680.254 95.8095 678.128 97.2003 675.31 98.5508C669.69 101.243 661.632 103.626 652.477 105.014Z" fill="#D9D9D9" stroke="black" stroke-width="3"/>
<path d="M582.541 116.171C573.63 117.521 565.449 117.601 559.445 116.672C556.434 116.207 554.058 115.501 552.425 114.635C550.761 113.753 550.145 112.864 550.035 112.139C549.925 111.414 550.25 110.382 551.578 109.046C552.881 107.736 554.941 106.358 557.679 105.021C563.138 102.355 570.975 100.007 579.887 98.6561C588.799 97.3054 596.979 97.2261 602.983 98.1543C605.994 98.6199 608.37 99.3259 610.003 100.191C611.667 101.073 612.283 101.963 612.393 102.688C612.503 103.412 612.178 104.445 610.85 105.78C609.547 107.091 607.487 108.469 604.749 109.806C599.29 112.472 591.453 114.82 582.541 116.171Z" fill="#D9D9D9" stroke="black" stroke-width="3"/>
<path d="M612.74 141.907C611.204 131.778 610.96 122.489 611.777 115.677C612.187 112.26 612.855 109.554 613.705 107.694C614.586 105.766 615.472 105.137 616.11 105.04C616.749 104.943 617.782 105.282 619.194 106.862C620.557 108.386 621.997 110.773 623.401 113.915C626.2 120.179 628.719 129.123 630.254 139.253C631.789 149.382 632.034 158.671 631.216 165.483C630.806 168.9 630.139 171.606 629.289 173.466C628.408 175.393 627.522 176.023 626.883 176.12C626.245 176.217 625.212 175.878 623.799 174.298C622.437 172.773 620.997 170.386 619.593 167.245C616.794 160.981 614.275 152.036 612.74 141.907Z" fill="#D9D9D9" stroke="black" stroke-width="3"/>
<path d="M601.058 67.9573C599.69 58.9292 599.595 50.6424 600.513 44.5615C600.973 41.5116 601.675 39.1039 602.54 37.4499C603.422 35.7613 604.311 35.1433 605.027 35.0348C605.743 34.9262 606.775 35.253 608.118 36.6044C609.433 37.9281 610.818 40.0195 612.161 42.796C614.84 48.3319 617.205 56.2747 618.573 65.3027C619.941 74.3308 620.036 82.6176 619.118 88.6986C618.658 91.7484 617.956 94.1561 617.091 95.8102C616.209 97.4987 615.32 98.1167 614.604 98.2252C613.888 98.3338 612.856 98.007 611.513 96.6557C610.198 95.332 608.813 93.2406 607.47 90.4641C604.791 84.9282 602.427 76.9854 601.058 67.9573Z" fill="#D9D9D9" stroke="black" stroke-width="3"/>
<path d="M669.379 139.34L571.088 69.6802" stroke="black" stroke-width="5" stroke-linecap="round" stroke-linejoin="round"/>
<path d="M579.76 152.662L649.419 54.3715" stroke="black" stroke-width="5" stroke-linecap="round" stroke-linejoin="round"/>
<path d="M185.043 486.087C195.002 478.668 204.679 472.917 212.25 469.605C216.047 467.945 219.237 466.932 221.629 466.599C222.825 466.432 223.743 466.446 224.404 466.586C225.053 466.722 225.359 466.955 225.512 467.162C225.666 467.368 225.802 467.728 225.747 468.388C225.692 469.062 225.443 469.946 224.941 471.044C223.936 473.241 222.053 476.007 219.375 479.17C214.036 485.477 205.756 493.103 195.797 500.522C185.838 507.941 176.161 513.692 168.59 517.004C164.793 518.664 161.603 519.677 159.211 520.01C158.015 520.177 157.097 520.163 156.436 520.023C155.787 519.887 155.481 519.654 155.328 519.447C155.174 519.241 155.038 518.881 155.093 518.221C155.148 517.547 155.397 516.663 155.899 515.565C156.904 513.368 158.787 510.602 161.464 507.439C166.804 501.132 175.084 493.506 185.043 486.087Z" fill="#D18828" stroke="black" stroke-width="3"/>
<path d="M148.685 464.442C149.894 479.099 149.819 492.424 148.735 502.107C148.192 506.96 147.403 510.821 146.434 513.457C145.948 514.78 145.447 515.711 144.97 516.298C144.495 516.883 144.16 516.992 143.992 517.006C143.823 517.02 143.475 516.967 142.91 516.468C142.344 515.967 141.696 515.131 141 513.906C139.612 511.463 138.202 507.785 136.87 503.086C134.214 493.712 131.955 480.579 130.746 465.922C129.537 451.265 129.612 437.94 130.696 428.257C131.239 423.403 132.028 419.543 132.996 416.907C133.482 415.584 133.984 414.653 134.461 414.066C134.936 413.481 135.271 413.372 135.439 413.358C135.607 413.344 135.956 413.396 136.521 413.896C137.087 414.397 137.735 415.233 138.431 416.458C139.819 418.9 141.229 422.579 142.561 427.278C145.217 436.652 147.476 449.785 148.685 464.442Z" fill="#C63A19" stroke="black" stroke-width="3"/>
<path d="M119.149 541.29C126.272 545.089 132.122 549.515 135.831 553.553C137.69 555.577 138.953 557.441 139.599 559.023C140.249 560.616 140.196 561.709 139.812 562.43C139.427 563.151 138.549 563.804 136.864 564.151C135.19 564.497 132.939 564.486 130.222 564.07C124.802 563.24 117.868 560.848 110.745 557.049C103.622 553.25 97.7728 548.825 94.0641 544.787C92.2048 542.762 90.9417 540.898 90.2958 539.316C89.6456 537.723 89.6985 536.63 90.0831 535.909C90.4676 535.188 91.3458 534.535 93.0308 534.188C94.7043 533.843 96.9562 533.853 99.6731 534.269C105.093 535.1 112.027 537.492 119.149 541.29Z" fill="#C63A19" stroke="black" stroke-width="3"/>
<path d="M103.55 499.269C115.985 507.122 126.582 515.201 133.663 521.893C137.213 525.247 139.822 528.2 141.345 530.56C142.109 531.744 142.55 532.705 142.732 533.439C142.914 534.171 142.799 534.504 142.709 534.647C142.619 534.789 142.368 535.036 141.628 535.187C140.888 535.338 139.83 535.352 138.433 535.171C135.647 534.81 131.86 533.723 127.306 531.959C118.22 528.439 106.373 522.341 93.9382 514.487C81.5038 506.633 70.9066 498.555 63.8253 491.863C60.2755 488.508 57.6669 485.556 56.1439 483.196C55.38 482.011 54.9382 481.051 54.7564 480.317C54.5749 479.585 54.6896 479.252 54.7797 479.109C54.8698 478.966 55.121 478.72 55.8602 478.569C56.601 478.418 57.6584 478.404 59.0558 478.585C61.8415 478.946 65.6285 480.033 70.183 481.797C79.2683 485.317 91.1161 491.415 103.55 499.269Z" fill="#667282" stroke="black" stroke-width="3"/>
<path d="M177.52 534.547C184.242 527.86 191.107 522.672 196.738 519.675C199.563 518.172 201.999 517.262 203.904 516.95C205.853 516.632 206.901 516.985 207.415 517.501C207.928 518.017 208.276 519.067 207.948 521.015C207.626 522.919 206.704 525.35 205.186 528.167C202.16 533.782 196.937 540.621 190.215 547.308C183.493 553.995 176.628 559.183 170.997 562.18C168.172 563.683 165.736 564.593 163.831 564.905C161.881 565.223 160.834 564.87 160.32 564.354C159.807 563.838 159.458 562.788 159.787 560.84C160.108 558.936 161.031 556.505 162.549 553.689C165.575 548.073 170.798 541.234 177.52 534.547Z" fill="#D4A47A" stroke="black" stroke-width="3"/>
<path d="M144.404 517L144.852 738" stroke="black" stroke-width="3"/>
<path d="M143.852 578L159.352 564" stroke="black" stroke-width="3"/>
<path d="M160.184 583.291C164.597 579.181 169.139 576.144 172.875 574.531C174.75 573.721 176.343 573.304 177.572 573.243C178.809 573.182 179.459 573.483 179.788 573.836C180.117 574.189 180.372 574.859 180.222 576.089C180.074 577.31 179.545 578.87 178.605 580.682C176.731 584.295 173.379 588.61 168.967 592.72C164.554 596.83 160.012 599.868 156.276 601.481C154.401 602.29 152.808 602.707 151.579 602.768C150.342 602.83 149.692 602.528 149.363 602.175C149.034 601.822 148.779 601.152 148.929 599.922C149.077 598.701 149.606 597.141 150.546 595.329C152.42 591.717 155.772 587.401 160.184 583.291Z" fill="#667282" stroke="black" stroke-width="3"/>
<path d="M139.847 601.752C139.797 601.823 139.598 602.032 138.883 602.119C138.172 602.206 137.156 602.141 135.813 601.866C133.138 601.318 129.517 600.009 125.177 598.004C116.519 594.006 105.271 587.367 93.5068 579.028C81.7426 570.69 71.7535 562.275 65.1131 555.43C61.7841 551.998 59.3505 549.016 57.9471 546.673C57.2424 545.497 56.845 544.559 56.6915 543.86C56.5369 543.157 56.6681 542.9 56.7182 542.829C56.7682 542.758 56.9673 542.549 57.6826 542.462C58.3929 542.376 59.409 542.44 60.7523 542.715C63.4275 543.264 67.0479 544.572 71.3883 546.577C80.0464 550.576 91.2943 557.214 103.058 565.553C114.823 573.892 124.812 582.306 131.452 589.151C134.781 592.583 137.215 595.566 138.618 597.908C139.323 599.085 139.72 600.022 139.874 600.721C140.028 601.425 139.897 601.682 139.847 601.752Z" fill="#D9D9D9" stroke="black" stroke-width="3"/>
<path d="M216.503 589.387C216.587 589.546 216.661 589.836 216.534 590.378C216.405 590.933 216.085 591.653 215.511 592.535C214.364 594.298 212.379 596.448 209.641 598.843C204.183 603.618 195.991 609.148 186.359 614.272C176.726 619.395 167.561 623.096 160.551 624.952C157.035 625.884 154.142 626.329 152.039 626.294C150.987 626.276 150.212 626.139 149.679 625.937C149.159 625.739 148.959 625.515 148.875 625.356C148.79 625.197 148.717 624.907 148.843 624.365C148.973 623.81 149.293 623.09 149.866 622.208C151.013 620.445 152.998 618.295 155.737 615.9C161.194 611.125 169.386 605.594 179.019 600.471C188.651 595.348 197.816 591.647 204.826 589.79C208.343 588.859 211.235 588.414 213.338 588.449C214.39 588.467 215.166 588.604 215.698 588.806C216.218 589.004 216.418 589.228 216.503 589.387Z" fill="#D9D9D9" stroke="black" stroke-width="3"/>
<path d="M121.065 612.482C127.5 616.368 132.988 620.37 136.656 623.679C138.499 625.342 139.825 626.778 140.589 627.896C140.958 628.437 141.149 628.835 141.228 629.099C140.959 629.151 140.517 629.168 139.866 629.092C138.521 628.937 136.633 628.432 134.303 627.575C129.667 625.869 123.571 622.875 117.135 618.989C110.7 615.102 105.212 611.1 101.544 607.791C99.7009 606.129 98.3751 604.692 97.6111 603.574C97.2418 603.034 97.051 602.635 96.9717 602.372C97.2415 602.319 97.6832 602.303 98.3336 602.378C99.6788 602.534 101.567 603.038 103.897 603.896C108.533 605.602 114.629 608.595 121.065 612.482ZM141.27 629.307C141.27 629.306 141.269 629.304 141.27 629.299C141.27 629.304 141.27 629.307 141.27 629.307ZM141.425 629.042C141.429 629.039 141.432 629.038 141.432 629.038C141.432 629.038 141.43 629.04 141.425 629.042ZM96.9304 602.164C96.9305 602.164 96.9306 602.166 96.9301 602.171C96.93 602.166 96.9302 602.164 96.9304 602.164ZM96.7748 602.428C96.7708 602.431 96.7685 602.432 96.7684 602.432C96.7682 602.432 96.7702 602.431 96.7748 602.428Z" fill="#D18828" stroke="black" stroke-width="3"/>
<path d="M622.398 940.023L623.427 942.009" stroke="black" stroke-width="3" stroke-linecap="round"/>
<path d="M626.369 937.965L624.427 941.994" stroke="black" stroke-width="3" stroke-linecap="round"/>
<path d="M622.166 924.024L624.195 925.995" stroke="black" stroke-width="3" stroke-linecap="round"/>
<path d="M626.181 924.967L624.225 927.996" stroke="black" stroke-width="3" stroke-linecap="round"/>
<path d="M619.834 901.056L622.892 905.012" stroke="black" stroke-width="3" stroke-linecap="round"/>
<path d="M629.485 876.913L622.616 886.014" stroke="black" stroke-width="3"/>
<path d="M646.726 857.568C652.393 853.218 657.896 849.841 662.188 847.889C664.346 846.908 666.12 846.323 667.417 846.123C668.067 846.022 668.518 846.032 668.803 846.088C668.968 846.12 669.041 846.159 669.066 846.177C669.077 846.206 669.096 846.287 669.085 846.454C669.065 846.744 668.957 847.182 668.693 847.784C668.164 848.985 667.14 850.548 665.635 852.379C662.641 856.022 657.958 860.465 652.291 864.816C646.624 869.167 641.121 872.543 636.829 874.495C634.672 875.476 632.897 876.062 631.6 876.262C630.95 876.362 630.499 876.353 630.214 876.297C630.049 876.265 629.976 876.226 629.951 876.208C629.94 876.179 629.921 876.098 629.933 875.931C629.952 875.641 630.06 875.202 630.324 874.601C630.853 873.4 631.877 871.836 633.382 870.006C636.376 866.363 641.059 861.919 646.726 857.568ZM669.078 846.186C669.078 846.186 669.076 846.185 669.073 846.181C669.077 846.184 669.078 846.186 669.078 846.186ZM669.064 846.169C669.061 846.165 669.06 846.163 669.06 846.163C669.06 846.163 669.062 846.165 669.064 846.169ZM629.939 876.199C629.939 876.198 629.941 876.2 629.944 876.203C629.94 876.2 629.939 876.199 629.939 876.199ZM629.954 876.216C629.956 876.219 629.957 876.222 629.957 876.222C629.957 876.222 629.955 876.22 629.954 876.216Z" fill="#D18828" stroke="black" stroke-width="3"/>
<path d="M624.518 844.923C625.337 853.355 625.402 861.014 624.862 866.567C624.591 869.356 624.174 871.536 623.66 872.998C623.402 873.733 623.148 874.203 622.938 874.469C622.886 874.536 622.843 874.581 622.811 874.611C622.774 874.588 622.723 874.552 622.659 874.496C622.401 874.275 622.061 873.863 621.667 873.191C620.882 871.855 620.053 869.797 619.25 867.112C617.651 861.767 616.242 854.239 615.423 845.806C614.604 837.373 614.538 829.715 615.078 824.162C615.349 821.373 615.767 819.193 616.28 817.731C616.538 816.996 616.792 816.526 617.002 816.259C617.055 816.193 617.097 816.147 617.129 816.117C617.167 816.141 617.217 816.177 617.282 816.232C617.539 816.453 617.879 816.865 618.274 817.537C619.059 818.873 619.887 820.932 620.69 823.617C622.289 828.962 623.699 836.49 624.518 844.923ZM622.738 874.667C622.738 874.667 622.741 874.666 622.746 874.664C622.741 874.667 622.739 874.668 622.738 874.667ZM622.885 874.65C622.89 874.651 622.893 874.652 622.893 874.653C622.893 874.653 622.89 874.652 622.885 874.65ZM617.202 816.061C617.202 816.061 617.199 816.063 617.194 816.065C617.199 816.062 617.202 816.061 617.202 816.061ZM617.056 816.078C617.05 816.077 617.048 816.076 617.048 816.076C617.048 816.076 617.05 816.076 617.056 816.078Z" fill="#C63A19" stroke="black" stroke-width="3"/>
<path d="M608.432 890.084C612.534 892.196 615.889 894.665 618.005 896.903C619.068 898.028 619.76 899.032 620.106 899.846C620.457 900.671 620.373 901.09 620.277 901.276C620.181 901.462 619.889 901.773 619.014 901.967C618.15 902.158 616.931 902.179 615.398 901.967C612.347 901.544 608.389 900.248 604.287 898.136C600.185 896.025 596.83 893.556 594.714 891.318C593.651 890.193 592.959 889.189 592.613 888.375C592.262 887.55 592.346 887.131 592.442 886.945C592.537 886.759 592.829 886.448 593.705 886.254C594.568 886.063 595.788 886.042 597.321 886.254C600.372 886.677 604.33 887.973 608.432 890.084Z" fill="#C63A19" stroke="black" stroke-width="3"/>
<path d="M599.025 865.907C606.253 870.327 612.409 874.883 616.519 878.656C618.584 880.551 620.074 882.196 620.932 883.486C621.364 884.134 621.587 884.62 621.673 884.948C621.695 885.03 621.705 885.091 621.71 885.135C621.669 885.151 621.61 885.17 621.527 885.188C621.195 885.26 620.662 885.284 619.887 885.195C618.348 885.018 616.205 884.441 613.578 883.467C608.346 881.527 601.486 878.123 594.258 873.703C587.03 869.283 580.873 864.727 576.763 860.954C574.699 859.059 573.209 857.414 572.35 856.125C571.918 855.476 571.696 854.991 571.609 854.662C571.588 854.58 571.577 854.519 571.572 854.475C571.614 854.459 571.673 854.441 571.756 854.423C572.087 854.35 572.621 854.327 573.395 854.416C574.934 854.593 577.077 855.169 579.705 856.144C584.936 858.083 591.797 861.487 599.025 865.907ZM621.711 885.227C621.711 885.227 621.712 885.224 621.713 885.219C621.712 885.224 621.712 885.227 621.711 885.227ZM621.786 885.1C621.79 885.096 621.792 885.095 621.792 885.095C621.792 885.095 621.79 885.097 621.786 885.1ZM571.571 854.384C571.571 854.384 571.571 854.387 571.57 854.392C571.57 854.386 571.571 854.383 571.571 854.384ZM571.497 854.511C571.493 854.514 571.49 854.516 571.49 854.516C571.49 854.516 571.492 854.514 571.497 854.511Z" fill="#667282" stroke="black" stroke-width="3"/>
<path d="M642.852 885.577C646.65 881.688 650.526 878.676 653.687 876.934C655.276 876.058 656.608 875.547 657.611 875.368C658.658 875.181 659.008 875.405 659.091 875.486C659.174 875.568 659.407 875.912 659.245 876.963C659.09 877.97 658.61 879.314 657.773 880.924C656.107 884.125 653.188 888.072 649.39 891.961C645.592 895.85 641.717 898.863 638.555 900.605C636.966 901.48 635.635 901.992 634.631 902.171C633.584 902.358 633.234 902.133 633.151 902.052C633.068 901.971 632.835 901.627 632.997 900.575C633.152 899.568 633.632 898.225 634.469 896.615C636.135 893.413 639.054 889.467 642.852 885.577Z" fill="#D4A47A" stroke="black" stroke-width="3"/>
<path d="M623.113 875.273L625.224 1002.99" stroke="black" stroke-width="3"/>
<path d="M622.978 911.011L631.847 901.881" stroke="black" stroke-width="3"/>
<path d="M633.226 913.907C635.704 911.532 638.245 909.785 640.309 908.859C641.347 908.392 642.187 908.169 642.793 908.129C643.409 908.09 643.568 908.246 643.582 908.26C643.595 908.274 643.744 908.44 643.679 909.053C643.614 909.657 643.356 910.487 642.846 911.505C641.834 913.528 639.982 915.993 637.505 918.369C635.027 920.745 632.486 922.491 630.423 923.418C629.384 923.884 628.544 924.108 627.938 924.147C627.322 924.186 627.163 924.031 627.149 924.016C627.136 924.002 626.987 923.837 627.052 923.223C627.117 922.619 627.376 921.789 627.885 920.771C628.898 918.748 630.749 916.283 633.226 913.907Z" fill="#667282" stroke="black" stroke-width="3"/>
<path d="M620.771 923.829C620.771 923.829 620.769 923.831 620.764 923.833C620.768 923.83 620.771 923.829 620.771 923.829ZM620.581 923.838C620.584 923.852 620.587 923.865 620.589 923.877C620.577 923.879 620.564 923.881 620.55 923.883C620.236 923.926 619.724 923.909 618.978 923.767C617.497 923.486 615.445 922.783 612.938 921.668C607.946 919.45 601.424 915.729 594.577 911.024C587.731 906.318 581.92 901.563 578.06 897.698C576.121 895.757 574.729 894.093 573.935 892.812C573.536 892.166 573.337 891.694 573.264 891.385C573.261 891.371 573.258 891.359 573.255 891.346C573.268 891.344 573.281 891.342 573.295 891.341C573.609 891.298 574.121 891.314 574.867 891.456C576.348 891.737 578.4 892.441 580.907 893.555C585.899 895.773 592.421 899.494 599.268 904.199C606.114 908.905 611.925 913.66 615.785 917.525C617.724 919.467 619.116 921.13 619.91 922.412C620.309 923.058 620.508 923.53 620.581 923.838ZM573.235 891.16C573.235 891.16 573.235 891.163 573.234 891.168C573.234 891.162 573.235 891.159 573.235 891.16ZM573.074 891.394C573.073 891.394 573.076 891.392 573.081 891.39C573.077 891.393 573.074 891.394 573.074 891.394ZM620.611 924.055C620.611 924.061 620.61 924.064 620.61 924.064C620.61 924.064 620.61 924.061 620.611 924.055Z" fill="#D9D9D9" stroke="black" stroke-width="3"/>
<path d="M664.814 916.757C664.814 916.757 664.815 916.759 664.815 916.764C664.814 916.759 664.814 916.757 664.814 916.757ZM664.701 916.767C664.753 916.786 664.79 916.803 664.815 916.816C664.813 916.845 664.807 916.885 664.796 916.938C664.747 917.163 664.607 917.512 664.305 917.991C663.702 918.949 662.621 920.163 661.078 921.553C658.009 924.317 653.365 927.555 647.87 930.58C642.376 933.606 637.156 935.799 633.179 936.914C631.179 937.475 629.576 937.74 628.444 937.737C627.877 937.736 627.508 937.667 627.292 937.589C627.24 937.57 627.204 937.553 627.178 937.54C627.18 937.511 627.186 937.471 627.198 937.417C627.247 937.193 627.386 936.844 627.688 936.365C628.291 935.407 629.372 934.193 630.916 932.803C633.984 930.039 638.629 926.801 644.123 923.775C649.617 920.75 654.838 918.556 658.814 917.441C660.814 916.881 662.418 916.616 663.55 916.619C664.116 916.62 664.486 916.688 664.701 916.767ZM627.129 937.507C627.129 937.507 627.131 937.509 627.134 937.512C627.13 937.509 627.129 937.507 627.129 937.507ZM627.179 937.599C627.179 937.599 627.178 937.597 627.178 937.592C627.179 937.596 627.179 937.599 627.179 937.599ZM664.86 916.844C664.863 916.847 664.865 916.848 664.865 916.848C664.864 916.848 664.863 916.847 664.86 916.844Z" fill="#D9D9D9" stroke="black" stroke-width="3"/>
<path d="M610.107 931.194C613.835 933.372 617.004 935.616 619.113 937.464C619.971 938.215 620.615 938.868 621.046 939.397C620.374 939.28 619.489 939.04 618.413 938.661C615.768 937.731 612.257 936.072 608.529 933.894C604.801 931.716 601.632 929.472 599.523 927.624C598.665 926.873 598.021 926.22 597.589 925.691C598.262 925.807 599.147 926.048 600.222 926.426C602.868 927.356 606.379 929.015 610.107 931.194Z" fill="#D18828" stroke="black" stroke-width="3"/>
</svg>
