<svg width="1440.000000" height="189.000000" viewBox="0 0 1440 189" fill="none" xmlns="http://www.w3.org/2000/svg" xmlns:xlink="http://www.w3.org/1999/xlink">
	<desc>
			Created with Pixso.
	</desc>
	<defs>
		<clipPath id="clip85_142">
			<rect id="logo 2" rx="0.000000" width="256.000000" height="108.000000" transform="translate(1166.500000 40.500000)" fill="white" fill-opacity="0"/>
		</clipPath>
	</defs>
	<rect id="Rectangle 13260" width="1440.000000" height="189.000000" fill="#000000" fill-opacity="1.000000"/>
	<rect id="logo 2" rx="0.000000" width="256.000000" height="108.000000" transform="translate(1166.500000 40.500000)" fill="#FFFFFF" fill-opacity="0"/>
	<g clip-path="url(#clip85_142)">
		<path id="Vector" d="M1203.63 94.19C1199.18 93.64 1196.96 90.32 1196.93 85.99C1196.93 82.79 1196.92 79.58 1196.93 76.38C1196.93 76.34 1196.94 76.32 1196.99 76.32L1203.74 76.32C1203.77 76.32 1203.8 76.33 1203.81 76.35C1203.84 76.37 1203.85 76.4 1203.85 76.44C1203.85 79.13 1203.85 81.84 1203.85 84.55C1203.85 85.93 1204.21 87.37 1205.82 87.58C1207.61 87.81 1208.21 86.48 1208.32 84.92C1208.43 83.53 1208.43 82.14 1208.32 80.75C1208.18 78.65 1207.17 76.97 1205.92 75.34C1204.32 73.27 1202.73 71.21 1201.12 69.15C1198.88 66.29 1197.51 63.23 1197.35 59.57C1197.15 55.03 1197.04 49.57 1202.21 47.81C1203.06 47.52 1204 47.34 1205 47.29C1206.71 47.2 1208.18 47.24 1209.39 47.41C1213.56 48 1215.1 50.91 1215.12 54.87C1215.14 57.5 1215.14 60.13 1215.12 62.77C1215.12 62.8 1215.11 62.82 1215.06 62.82L1208.53 62.84C1208.49 62.84 1208.46 62.83 1208.43 62.81C1208.42 62.79 1208.41 62.76 1208.41 62.73C1208.41 60.63 1208.41 58.52 1208.41 56.4C1208.42 55.19 1208.3 53.69 1206.77 53.51C1204.93 53.29 1204.44 54.51 1204.41 56.11C1204.39 57 1204.41 57.89 1204.47 58.78C1204.62 60.75 1205.53 62.33 1206.69 63.87C1208.43 66.15 1210.17 68.43 1211.92 70.7C1213.85 73.2 1215.28 75.71 1215.65 78.9C1215.88 80.87 1215.88 83.04 1215.75 85.11C1215.46 89.79 1213.21 93.74 1208.15 94.22C1206.54 94.38 1205.03 94.37 1203.63 94.19Z" fill="#FFFFFF" fill-opacity="1.000000" fill-rule="nonzero"/>
		<path id="Vector" d="M1194.88 88.61C1194.92 90.32 1194.92 92.01 1194.9 93.66C1194.9 93.77 1194.84 93.83 1194.73 93.83L1188.04 93.83C1188.01 93.83 1187.98 93.82 1187.96 93.79C1187.93 93.77 1187.93 93.74 1187.93 93.71L1187.93 73.68C1187.93 73.65 1187.91 73.62 1187.89 73.6C1187.87 73.58 1187.84 73.56 1187.81 73.56L1183.28 73.56C1183.25 73.56 1183.22 73.58 1183.19 73.6C1183.18 73.62 1183.17 73.65 1183.17 73.68L1183.17 93.68C1183.17 93.78 1183.12 93.83 1183.02 93.83L1176.28 93.83C1176.24 93.83 1176.21 93.8 1176.21 93.75L1176.21 47.76C1176.21 47.73 1176.23 47.71 1176.27 47.71L1183.12 47.71C1183.13 47.71 1183.14 47.71 1183.15 47.72C1183.16 47.73 1183.17 47.74 1183.17 47.75L1183.17 66.07C1183.17 66.09 1183.17 66.1 1183.18 66.11C1183.18 66.12 1183.18 66.13 1183.19 66.14C1183.21 66.15 1183.22 66.16 1183.23 66.16C1183.24 66.17 1183.26 66.17 1183.27 66.17L1187.81 66.17C1187.84 66.17 1187.87 66.16 1187.89 66.14C1187.91 66.12 1187.93 66.09 1187.93 66.06L1187.93 47.78C1187.93 47.73 1187.94 47.71 1188 47.71L1194.81 47.71C1194.84 47.71 1194.87 47.72 1194.88 47.73C1194.9 47.75 1194.91 47.77 1194.91 47.79C1194.91 61.34 1194.91 74.9 1194.91 88.46C1194.91 88.49 1194.9 88.5 1194.9 88.52C1194.88 88.55 1194.88 88.58 1194.88 88.61Z" fill="#FFFFFF" fill-opacity="1.000000" fill-rule="nonzero"/>
		<path id="Vector" d="M1224.82 66.46L1231.66 66.47C1231.68 66.47 1231.68 66.47 1231.71 66.48C1231.72 66.5 1231.72 66.51 1231.72 66.53L1231.72 73.44C1231.72 73.46 1231.71 73.48 1231.69 73.49C1231.68 73.5 1231.67 73.51 1231.66 73.51L1224.82 73.51C1224.81 73.51 1224.8 73.51 1224.79 73.53C1224.78 73.54 1224.77 73.55 1224.77 73.57L1224.77 86.72C1224.77 86.74 1224.77 86.75 1224.79 86.76C1224.8 86.78 1224.81 86.78 1224.82 86.78L1233.93 86.78C1233.94 86.78 1233.97 86.79 1233.98 86.8C1233.99 86.81 1234 86.83 1234 86.85L1234 93.76C1234 93.78 1233.99 93.8 1233.98 93.81C1233.97 93.82 1233.94 93.83 1233.93 93.83L1217.85 93.83C1217.82 93.83 1217.81 93.82 1217.81 93.81C1217.79 93.8 1217.79 93.78 1217.79 93.76L1217.79 47.77C1217.79 47.75 1217.79 47.74 1217.81 47.72C1217.81 47.71 1217.82 47.71 1217.85 47.71L1233.59 47.71C1233.61 47.71 1233.62 47.71 1233.64 47.72C1233.65 47.74 1233.66 47.75 1233.66 47.77L1233.66 54.34C1233.66 54.36 1233.65 54.37 1233.64 54.38C1233.62 54.4 1233.61 54.4 1233.59 54.4L1224.82 54.4C1224.81 54.4 1224.8 54.41 1224.79 54.42C1224.78 54.43 1224.77 54.45 1224.77 54.47L1224.77 66.4C1224.77 66.41 1224.77 66.41 1224.77 66.42C1224.78 66.43 1224.78 66.44 1224.79 66.44C1224.79 66.45 1224.8 66.45 1224.81 66.46C1224.81 66.46 1224.81 66.46 1224.82 66.46Z" fill="#FFFFFF" fill-opacity="1.000000" fill-rule="nonzero"/>
		<path id="Vector" d="M1247.75 85.25L1246.84 93.74C1246.84 93.77 1246.82 93.79 1246.81 93.8C1246.8 93.82 1246.77 93.83 1246.75 93.83L1240.68 93.83C1240.68 93.83 1240.66 93.83 1240.65 93.82C1240.64 93.81 1240.63 93.81 1240.62 93.8C1240.61 93.79 1240.6 93.77 1240.6 93.76C1240.6 93.75 1240.59 93.74 1240.6 93.72L1246.18 47.79C1246.18 47.77 1246.21 47.75 1246.22 47.73C1246.24 47.71 1246.26 47.71 1246.29 47.71L1254.4 47.71C1254.42 47.71 1254.44 47.71 1254.46 47.73C1254.48 47.75 1254.49 47.77 1254.5 47.79L1260.46 93.72C1260.46 93.73 1260.46 93.75 1260.44 93.76C1260.44 93.77 1260.43 93.79 1260.43 93.8C1260.42 93.81 1260.41 93.81 1260.4 93.82C1260.39 93.83 1260.38 93.83 1260.36 93.83L1253.81 93.83C1253.79 93.83 1253.77 93.82 1253.75 93.8C1253.73 93.79 1253.72 93.77 1253.72 93.74L1252.81 85.24C1252.81 85.22 1252.8 85.2 1252.78 85.18C1252.76 85.17 1252.74 85.16 1252.72 85.16L1247.85 85.16C1247.81 85.16 1247.8 85.17 1247.78 85.18C1247.76 85.2 1247.75 85.22 1247.75 85.25ZM1248.44 78.19C1248.44 78.2 1248.44 78.2 1248.46 78.21C1248.46 78.21 1248.46 78.22 1248.46 78.22C1248.47 78.22 1248.47 78.23 1248.47 78.23C1248.48 78.23 1248.48 78.23 1248.49 78.23L1252.01 78.23C1252.02 78.23 1252.02 78.23 1252.03 78.23C1252.03 78.23 1252.04 78.23 1252.04 78.22C1252.04 78.22 1252.05 78.21 1252.05 78.21C1252.05 78.2 1252.05 78.2 1252.05 78.19L1250.25 61.62C1250.25 61.62 1250.25 61.61 1250.24 61.6C1250.24 61.6 1250.23 61.59 1250.22 61.59C1250.21 61.59 1250.19 61.6 1250.18 61.6C1250.18 61.61 1250.18 61.62 1250.18 61.62L1248.44 78.19Z" fill="#FFFFFF" fill-opacity="1.000000" fill-rule="nonzero"/>
		<path id="Vector" d="M1268.61 73.26C1268.56 73.26 1268.53 73.29 1268.53 73.34L1268.53 93.7C1268.53 93.73 1268.52 93.76 1268.5 93.79C1268.47 93.81 1268.43 93.83 1268.41 93.83L1261.67 93.83C1261.64 93.83 1261.61 93.82 1261.59 93.79C1261.56 93.77 1261.55 93.74 1261.55 93.71L1261.55 47.82C1261.55 47.79 1261.56 47.76 1261.59 47.74C1261.61 47.72 1261.64 47.71 1261.67 47.71C1265.52 47.71 1269.39 47.71 1273.27 47.71C1278.19 47.71 1279.88 50.66 1279.82 55.2C1279.81 57.92 1279.84 60.64 1279.8 63.36C1279.77 65.65 1278.99 67.81 1276.89 68.87C1276.88 68.87 1276.88 68.88 1276.88 68.88C1276.87 68.89 1276.87 68.89 1276.87 68.9C1276.87 68.9 1276.87 68.91 1276.88 68.91C1276.88 68.92 1276.88 68.92 1276.89 68.92C1278.71 69.75 1279.68 71.19 1279.78 73.24C1279.8 73.67 1279.81 74.1 1279.81 74.53C1279.84 78.63 1279.85 82.72 1279.84 86.82C1279.84 89.06 1279.55 91.42 1280.52 93.53C1280.54 93.56 1280.54 93.6 1280.54 93.63C1280.54 93.67 1280.53 93.7 1280.51 93.73C1280.49 93.76 1280.46 93.79 1280.43 93.8C1280.4 93.82 1280.37 93.83 1280.32 93.83L1273.72 93.83C1273.67 93.83 1273.62 93.81 1273.57 93.79C1273.54 93.76 1273.5 93.72 1273.48 93.67C1273.14 92.89 1272.96 92.04 1272.94 91.14C1272.89 85.98 1272.88 80.81 1272.9 75.65C1272.9 74.17 1272.32 73.39 1270.86 73.28C1270.1 73.23 1269.35 73.22 1268.61 73.26ZM1270.96 66.6C1272.78 66.39 1272.96 64.32 1272.92 62.91C1272.86 60.88 1272.89 58.85 1272.89 56.82C1272.89 55.42 1272.6 54.13 1270.99 54.02C1270.19 53.96 1269.41 53.95 1268.63 53.98C1268.61 53.98 1268.57 53.99 1268.56 54.01C1268.54 54.03 1268.53 54.05 1268.53 54.08L1268.53 66.55C1268.53 66.57 1268.54 66.58 1268.54 66.6C1268.55 66.62 1268.56 66.63 1268.56 66.64C1268.59 66.65 1268.6 66.66 1268.62 66.67C1268.63 66.67 1268.65 66.68 1268.67 66.67C1269.44 66.62 1270.21 66.69 1270.96 66.6Z" fill="#FFFFFF" fill-opacity="1.000000" fill-rule="nonzero"/>
		<path id="Vector" d="M1293.79 93.83L1287.07 93.83C1287.06 93.83 1287.05 93.83 1287.04 93.82C1287.02 93.81 1287.01 93.81 1287 93.8C1286.99 93.79 1286.98 93.77 1286.98 93.76C1286.97 93.75 1286.97 93.73 1286.97 93.72L1286.97 54.51C1286.97 54.48 1286.96 54.45 1286.93 54.43C1286.92 54.41 1286.89 54.4 1286.86 54.4L1281.22 54.4C1281.18 54.4 1281.17 54.39 1281.14 54.37C1281.12 54.35 1281.11 54.32 1281.11 54.29L1281.11 47.81C1281.11 47.8 1281.12 47.79 1281.12 47.77C1281.13 47.76 1281.13 47.75 1281.14 47.74C1281.15 47.73 1281.17 47.72 1281.18 47.71C1281.18 47.71 1281.21 47.71 1281.22 47.71L1299.64 47.71C1299.66 47.71 1299.67 47.71 1299.68 47.71C1299.69 47.72 1299.71 47.73 1299.72 47.74C1299.73 47.75 1299.74 47.76 1299.74 47.77C1299.75 47.79 1299.75 47.8 1299.75 47.81L1299.75 54.29C1299.75 54.32 1299.74 54.35 1299.72 54.37C1299.69 54.39 1299.67 54.4 1299.64 54.4L1294 54.4C1293.99 54.4 1293.97 54.41 1293.96 54.41C1293.94 54.42 1293.93 54.42 1293.93 54.43C1293.92 54.44 1293.91 54.46 1293.9 54.47C1293.9 54.48 1293.89 54.5 1293.89 54.51L1293.89 93.72C1293.89 93.75 1293.88 93.78 1293.86 93.8C1293.84 93.82 1293.81 93.83 1293.79 93.83Z" fill="#FFFFFF" fill-opacity="1.000000" fill-rule="nonzero"/>
		<path id="Vector" d="M1318.42 85.16L1313.51 85.16C1313.49 85.16 1313.47 85.17 1313.46 85.18C1313.45 85.19 1313.44 85.21 1313.43 85.23L1312.52 93.76C1312.52 93.78 1312.51 93.8 1312.5 93.81C1312.49 93.82 1312.47 93.83 1312.45 93.83L1306.35 93.83C1306.34 93.83 1306.32 93.83 1306.31 93.82C1306.31 93.82 1306.3 93.81 1306.29 93.8C1306.29 93.79 1306.28 93.79 1306.28 93.78C1306.28 93.76 1306.27 93.75 1306.28 93.74L1311.87 47.77C1311.88 47.75 1311.89 47.74 1311.9 47.72C1311.91 47.71 1311.93 47.71 1311.95 47.71L1320.1 47.71C1320.12 47.71 1320.14 47.71 1320.15 47.73C1320.17 47.74 1320.17 47.75 1320.18 47.77L1326.14 93.75C1326.14 93.75 1326.14 93.77 1326.14 93.78C1326.13 93.79 1326.13 93.8 1326.12 93.8C1326.12 93.81 1326.11 93.82 1326.1 93.82C1326.09 93.83 1326.08 93.83 1326.07 93.83L1319.47 93.82C1319.46 93.82 1319.44 93.82 1319.42 93.8C1319.41 93.79 1319.4 93.78 1319.4 93.76L1318.49 85.22C1318.49 85.21 1318.48 85.19 1318.47 85.18C1318.45 85.16 1318.43 85.16 1318.42 85.16ZM1317.68 78.23C1317.68 78.23 1317.69 78.23 1317.7 78.23C1317.71 78.22 1317.71 78.22 1317.72 78.21C1317.72 78.21 1317.73 78.2 1317.73 78.19C1317.73 78.19 1317.73 78.18 1317.73 78.17L1315.95 61.71C1315.92 61.43 1315.89 61.43 1315.86 61.71L1314.13 78.2C1314.13 78.2 1314.13 78.21 1314.13 78.21C1314.13 78.22 1314.14 78.22 1314.14 78.22C1314.14 78.23 1314.15 78.23 1314.15 78.23C1314.16 78.23 1314.16 78.24 1314.17 78.24L1317.68 78.23Z" fill="#FFFFFF" fill-opacity="1.000000" fill-rule="nonzero"/>
		<path id="Vector" d="M1333.58 67.57C1333.55 67.84 1333.54 68.08 1333.54 68.3C1333.54 76.79 1333.54 85.28 1333.54 93.77C1333.54 93.79 1333.53 93.8 1333.52 93.81C1333.51 93.82 1333.49 93.83 1333.48 93.83L1327.41 93.82C1327.3 93.82 1327.25 93.77 1327.25 93.66L1327.25 47.76C1327.25 47.75 1327.25 47.73 1327.26 47.72C1327.27 47.71 1327.29 47.71 1327.3 47.71L1333.52 47.71C1333.54 47.71 1333.56 47.72 1333.56 47.74L1339.44 72.02C1339.49 72.22 1339.51 72.22 1339.51 72.01L1339.51 47.75C1339.51 47.74 1339.51 47.73 1339.52 47.72C1339.53 47.71 1339.54 47.71 1339.55 47.71L1345.83 47.71C1345.84 47.71 1345.86 47.71 1345.87 47.72C1345.88 47.73 1345.88 47.75 1345.88 47.76L1345.88 93.68C1345.88 93.7 1345.88 93.72 1345.87 93.74C1345.87 93.75 1345.85 93.77 1345.84 93.78C1345.83 93.8 1345.81 93.81 1345.79 93.81C1345.78 93.82 1345.76 93.83 1345.74 93.83L1340.29 93.83C1340.26 93.83 1340.24 93.82 1340.22 93.8C1340.2 93.79 1340.18 93.77 1340.17 93.74L1333.6 67.57C1333.59 67.53 1333.58 67.53 1333.58 67.57Z" fill="#FFFFFF" fill-opacity="1.000000" fill-rule="nonzero"/>
		<path id="Vector" d="M1348.66 93.82C1348.61 93.81 1348.55 93.79 1348.51 93.75C1348.47 93.71 1348.45 93.66 1348.45 93.6L1348.45 47.82C1348.45 47.79 1348.46 47.76 1348.48 47.74C1348.5 47.72 1348.53 47.71 1348.56 47.71C1352.18 47.71 1355.8 47.7 1359.44 47.7C1363.37 47.7 1365.91 49.5 1366.7 53.38C1366.88 54.26 1366.97 55.1 1366.97 55.89C1366.97 65.67 1366.97 75.46 1366.95 85.25C1366.94 90.4 1364.58 93.8 1359.16 93.83C1355.71 93.85 1352.21 93.84 1348.66 93.82ZM1359.79 57.4C1359.79 55.94 1359.61 54.09 1357.71 54C1356.97 53.96 1356.24 53.95 1355.51 53.97C1355.5 53.97 1355.49 53.98 1355.48 53.99C1355.47 54 1355.46 54.01 1355.46 54.03L1355.46 87.02C1355.46 87.06 1355.48 87.08 1355.53 87.09C1356.17 87.12 1356.82 87.12 1357.46 87.08C1359.63 86.96 1359.81 85.1 1359.81 83.39C1359.82 74.73 1359.81 66.06 1359.79 57.4Z" fill="#FFFFFF" fill-opacity="1.000000" fill-rule="nonzero"/>
		<path id="Vector" d="M1216.29 138.49C1215.07 136.9 1214.65 134.85 1214.64 132.9C1214.64 129.74 1214.64 126.58 1214.65 123.42C1214.65 123.39 1214.66 123.37 1214.69 123.37L1221.48 123.37C1221.52 123.37 1221.54 123.39 1221.54 123.43C1221.54 125.7 1221.54 127.97 1221.54 130.24C1221.54 131.87 1221.35 134.52 1223.68 134.62C1225.23 134.69 1225.88 133.66 1226.01 132.24C1226.14 130.64 1226.18 128.69 1225.99 127.28C1225.73 125.4 1224.8 123.93 1223.62 122.4C1222.02 120.3 1220.4 118.21 1218.78 116.12C1216.66 113.4 1215.4 110.64 1215.1 107.17C1214.61 101.31 1214.99 94.84 1222.5 94.35C1228.29 93.98 1232.75 94.93 1232.82 101.9C1232.85 104.48 1232.86 107.12 1232.84 109.81C1232.84 109.82 1232.82 109.83 1232.82 109.84C1232.81 109.85 1232.8 109.86 1232.79 109.86L1226.16 109.86C1226.14 109.86 1226.12 109.85 1226.11 109.84C1226.1 109.83 1226.1 109.82 1226.1 109.8C1226.1 107.58 1226.1 105.35 1226.09 103.1C1226.09 101.66 1225.68 100.4 1223.96 100.53C1222.98 100.6 1222.41 101.1 1222.24 102.04C1222.03 103.28 1222.05 104.84 1222.17 106.01C1222.4 108.04 1223.43 109.66 1224.66 111.26C1226.71 113.95 1228.11 115.79 1228.89 116.77C1230.63 118.99 1232.19 121.17 1232.96 123.89C1233.56 126.06 1233.55 128.36 1233.49 130.7C1233.47 131.98 1233.39 132.98 1233.28 133.71C1232.61 137.91 1230.13 140.85 1225.76 141.28C1222.46 141.59 1218.5 141.4 1216.29 138.49Z" fill="#FFFFFF" fill-opacity="1.000000" fill-rule="nonzero"/>
		<path id="Vector" d="M1258.32 136.42C1258.32 136.42 1258.31 136.41 1258.31 136.41C1258.31 136.4 1258.31 136.4 1258.3 136.4C1258.3 136.4 1258.29 136.4 1258.29 136.41C1258.28 136.41 1258.28 136.41 1258.28 136.42C1257.28 138.89 1255.13 141.13 1252.41 141.43C1248.04 141.92 1245.5 138.61 1244.94 134.67C1244.88 134.2 1244.85 133.48 1244.85 132.51C1244.85 122.97 1244.85 113.43 1244.87 103.89C1244.87 100.29 1246.06 96.38 1249.73 94.94C1251.61 94.2 1253.73 94.23 1255.78 94.34C1261.42 94.64 1263.01 98.42 1263.07 103.43C1263.1 105.3 1263.12 107.24 1263.12 109.25C1263.12 109.28 1263.11 109.31 1263.07 109.33C1263.06 109.35 1263.03 109.36 1263 109.36L1256.42 109.37C1256.38 109.37 1256.36 109.36 1256.32 109.34C1256.31 109.32 1256.3 109.29 1256.3 109.26C1256.3 107.33 1256.3 105.4 1256.3 103.46C1256.29 101.91 1255.36 100.75 1253.69 101.05C1252.06 101.35 1251.94 103.14 1251.94 104.47C1251.93 113.35 1251.93 122.23 1251.93 131.11C1251.93 132.61 1252.44 134.38 1254.25 134.37C1256.31 134.36 1256.79 132.85 1256.79 131.13C1256.79 127.41 1256.79 123.7 1256.8 120C1256.8 119.99 1256.8 119.98 1256.79 119.96C1256.79 119.95 1256.78 119.94 1256.77 119.93C1256.76 119.93 1256.75 119.92 1256.74 119.91C1256.73 119.91 1256.72 119.91 1256.71 119.91L1253.77 119.92C1253.75 119.92 1253.74 119.92 1253.72 119.91C1253.71 119.91 1253.68 119.9 1253.68 119.89C1253.67 119.88 1253.66 119.86 1253.66 119.85C1253.65 119.84 1253.65 119.82 1253.65 119.81L1253.65 112.93C1253.65 112.9 1253.66 112.87 1253.68 112.85C1253.69 112.83 1253.73 112.82 1253.76 112.82L1263.32 112.82C1263.35 112.82 1263.38 112.83 1263.4 112.85C1263.42 112.86 1263.43 112.89 1263.43 112.92L1263.43 140.79C1263.43 140.83 1263.41 140.85 1263.37 140.85L1259.54 140.85C1259.52 140.85 1259.5 140.84 1259.49 140.83C1259.47 140.82 1259.46 140.81 1259.46 140.79L1258.32 136.42Z" fill="#FFFFFF" fill-opacity="1.000000" fill-rule="nonzero"/>
		<path id="Vector" d="M1311.57 126.81C1312.07 133.04 1311.44 141.12 1303.15 141.33C1301.69 141.37 1300.22 141.39 1298.79 141.1C1294.19 140.2 1292.78 136.54 1292.77 132.31C1292.77 129.35 1292.77 126.39 1292.77 123.43C1292.77 123.39 1292.79 123.37 1292.82 123.37L1299.63 123.37C1299.65 123.37 1299.67 123.37 1299.68 123.39C1299.68 123.4 1299.68 123.41 1299.68 123.43C1299.68 126.19 1299.68 128.97 1299.68 131.75C1299.68 133.47 1300.42 134.76 1302.31 134.59C1303.73 134.46 1304.09 133.15 1304.18 131.94C1304.28 130.56 1304.28 129.18 1304.18 127.8C1304.03 125.73 1303.06 124.08 1301.82 122.47C1300.15 120.29 1298.47 118.12 1296.78 115.95C1294.46 112.96 1293.23 109.72 1293.17 105.92C1293.13 103.59 1293.03 101.82 1293.54 99.83C1294.9 94.43 1300.06 93.98 1304.66 94.38C1309.43 94.79 1310.96 97.87 1310.97 102.32C1310.98 104.82 1310.98 107.31 1310.97 109.8C1310.97 109.82 1310.97 109.83 1310.96 109.84C1310.94 109.85 1310.93 109.86 1310.92 109.86L1304.31 109.86C1304.29 109.86 1304.28 109.85 1304.27 109.84C1304.26 109.83 1304.25 109.81 1304.25 109.8C1304.25 107.68 1304.25 105.56 1304.26 103.42C1304.26 102.22 1304.14 100.73 1302.63 100.54C1300.97 100.34 1300.38 101.28 1300.29 102.77C1300.23 103.62 1300.22 104.48 1300.25 105.34C1300.34 107.57 1301.34 109.34 1302.66 111.06C1304.54 113.51 1306.41 115.96 1308.29 118.42C1310.22 120.94 1311.31 123.56 1311.57 126.81Z" fill="#FFFFFF" fill-opacity="1.000000" fill-rule="nonzero"/>
		<path id="Vector" d="M1321.79 141.4C1317.97 141.38 1314.9 139.56 1313.92 135.68C1313.53 134.12 1313.43 132.86 1313.43 131.07C1313.42 121.89 1313.42 112.7 1313.43 103.51C1313.43 98.71 1315.56 94.75 1320.81 94.36C1324.68 94.08 1329.22 94.24 1331.02 98.41C1331.76 100.12 1331.88 102.12 1331.89 103.98C1331.89 106.69 1331.89 109.39 1331.89 112.09C1331.89 112.11 1331.88 112.12 1331.87 112.13C1331.86 112.14 1331.85 112.15 1331.83 112.15L1325.08 112.15C1325.07 112.15 1325.06 112.15 1325.05 112.14C1325.04 112.13 1325.03 112.12 1325.03 112.11C1324.96 111.83 1325.02 111.51 1325.02 111.31C1325.03 108.92 1325.03 106.54 1325.02 104.15C1325.01 102.14 1324.3 100.52 1321.91 101.11C1320.88 101.36 1320.55 102.47 1320.55 103.4C1320.55 112.83 1320.55 122.26 1320.55 131.69C1320.55 133.01 1320.97 134.38 1322.5 134.56C1324.27 134.76 1325.04 133.26 1325.01 131.74C1324.95 128.13 1325.03 124.5 1325.02 120.82C1325.02 120.8 1325.03 120.79 1325.04 120.78C1325.05 120.77 1325.07 120.76 1325.08 120.76L1331.83 120.76C1331.85 120.76 1331.86 120.77 1331.87 120.78C1331.89 120.79 1331.89 120.8 1331.89 120.82C1331.89 124.39 1331.89 127.98 1331.88 131.57C1331.88 136.9 1329.79 141.37 1323.73 141.4C1323.08 141.4 1322.44 141.4 1321.79 141.4Z" fill="#FFFFFF" fill-opacity="1.000000" fill-rule="nonzero"/>
		<path id="Vector" d="M1360.4 140.78C1355.84 139.14 1355.18 134.14 1355.18 129.97C1355.17 116.79 1355.17 108.36 1355.17 104.7C1355.18 100.51 1356.39 96.05 1360.89 94.73C1362.61 94.22 1364.58 94.22 1366.38 94.34C1373.05 94.77 1374.27 99.95 1374.27 105.52C1374.27 113.77 1374.28 122.02 1374.27 130.27C1374.27 135.84 1372.76 141.16 1366.04 141.39C1364.15 141.45 1362.25 141.44 1360.4 140.78ZM1362.3 130.2C1362.3 131.86 1362.25 134.5 1364.64 134.58C1366.69 134.66 1367.15 132.84 1367.15 131.2C1367.15 122.19 1367.14 113.19 1367.13 104.18C1367.13 102.98 1366.76 101.46 1365.45 101.11C1364.63 100.89 1363.92 101 1363.31 101.44C1362.21 102.24 1362.3 104.02 1362.3 105.2C1362.28 113.53 1362.28 121.87 1362.3 130.2Z" fill="#FFFFFF" fill-opacity="1.000000" fill-rule="nonzero"/>
		<path id="Vector" d="M1379.4 139.41C1376.86 137.13 1376.47 133.45 1376.47 130.27C1376.46 121.63 1376.46 112.99 1376.47 104.35C1376.47 99.44 1378.43 94.93 1383.91 94.4C1386.04 94.19 1388.31 94.18 1390.3 94.85C1394.77 96.35 1395.53 100.98 1395.53 105.07C1395.54 113.68 1395.54 122.28 1395.53 130.88C1395.53 136.59 1393.43 141.37 1386.91 141.4C1384.15 141.41 1381.59 141.36 1379.4 139.41ZM1385.14 134.39C1386.25 134.85 1387.63 134.46 1388.09 133.25C1388.31 132.66 1388.42 132.02 1388.42 131.34C1388.41 122.4 1388.41 113.45 1388.41 104.51C1388.41 103.59 1388.32 102.72 1387.92 102.01C1387.23 100.78 1385.21 100.67 1384.31 101.69C1383.68 102.38 1383.57 103.58 1383.57 104.53C1383.56 113.43 1383.57 122.34 1383.58 131.25C1383.58 132.49 1383.83 133.86 1385.14 134.39Z" fill="#FFFFFF" fill-opacity="1.000000" fill-rule="nonzero"/>
		<path id="Vector" d="M1187.28 140.83C1183.61 140.86 1179.93 140.86 1176.26 140.84C1176.25 140.84 1176.24 140.84 1176.23 140.83C1176.22 140.82 1176.21 140.81 1176.21 140.79L1176.21 94.79C1176.21 94.77 1176.22 94.76 1176.23 94.75C1176.24 94.74 1176.25 94.73 1176.26 94.73C1180.07 94.71 1183.9 94.72 1187.72 94.75C1188.42 94.76 1189.15 94.88 1189.92 95.11C1193.97 96.33 1194.69 99.91 1194.69 103.66C1194.71 113.26 1194.71 122.85 1194.71 132.44C1194.71 132.83 1194.66 133.38 1194.56 134.1C1194.06 138.26 1191.56 140.79 1187.28 140.83ZM1187.54 104.42C1187.54 102.87 1187.31 101.03 1185.3 101.02C1184.3 101.02 1183.61 101.02 1183.24 101.02C1183.18 101.02 1183.17 101.04 1183.17 101.09L1183.17 134.03C1183.17 134.08 1183.18 134.1 1183.23 134.11C1185.05 134.18 1187 134.39 1187.41 132.21C1187.5 131.72 1187.55 131.23 1187.55 130.73C1187.55 121.96 1187.55 113.19 1187.54 104.42Z" fill="#FFFFFF" fill-opacity="1.000000" fill-rule="nonzero"/>
		<path id="Vector" d="M1197.16 140.77L1197.16 94.8C1197.16 94.78 1197.17 94.76 1197.18 94.75C1197.18 94.74 1197.21 94.73 1197.23 94.73L1212.94 94.73C1212.97 94.73 1212.99 94.74 1213 94.75C1213.02 94.76 1213.03 94.78 1213.03 94.8L1213.03 101.35C1213.03 101.37 1213.02 101.39 1213 101.4C1212.99 101.42 1212.97 101.42 1212.94 101.42L1204.22 101.42C1204.21 101.42 1204.19 101.43 1204.18 101.43C1204.18 101.43 1204.17 101.44 1204.16 101.45C1204.16 101.45 1204.15 101.46 1204.15 101.47C1204.14 101.48 1204.14 101.49 1204.14 101.5L1204.14 113.41C1204.14 113.42 1204.14 113.43 1204.15 113.44C1204.15 113.45 1204.16 113.46 1204.16 113.47C1204.17 113.47 1204.18 113.48 1204.18 113.48C1204.19 113.49 1204.21 113.49 1204.22 113.49L1211.05 113.48C1211.06 113.48 1211.07 113.49 1211.1 113.5C1211.11 113.52 1211.12 113.54 1211.12 113.56L1211.12 120.45C1211.12 120.47 1211.11 120.49 1211.1 120.51C1211.07 120.52 1211.06 120.53 1211.05 120.53L1204.22 120.53C1204.21 120.53 1204.19 120.53 1204.18 120.53C1204.18 120.54 1204.17 120.54 1204.16 120.55C1204.16 120.56 1204.15 120.57 1204.15 120.58C1204.14 120.59 1204.14 120.6 1204.14 120.6L1204.14 133.76C1204.14 133.78 1204.15 133.8 1204.16 133.81C1204.18 133.83 1204.19 133.83 1204.22 133.83L1213.32 133.83C1213.34 133.83 1213.36 133.84 1213.38 133.86C1213.39 133.87 1213.4 133.89 1213.4 133.91L1213.4 140.77C1213.4 140.79 1213.39 140.81 1213.38 140.83C1213.36 140.84 1213.34 140.85 1213.32 140.85L1197.23 140.85C1197.21 140.85 1197.18 140.84 1197.18 140.83C1197.17 140.81 1197.16 140.79 1197.16 140.77Z" fill="#FFFFFF" fill-opacity="1.000000" fill-rule="nonzero"/>
		<path id="Vector" d="M1242.39 94.73L1235.54 94.73C1235.5 94.73 1235.47 94.76 1235.47 94.79L1235.47 140.78C1235.47 140.82 1235.5 140.85 1235.54 140.85L1242.39 140.85C1242.42 140.85 1242.44 140.82 1242.44 140.78L1242.44 94.79C1242.44 94.76 1242.42 94.73 1242.39 94.73Z" fill="#FFFFFF" fill-opacity="1.000000" fill-rule="evenodd"/>
		<path id="Vector" d="M1278.07 119.08L1278.07 94.79C1278.07 94.77 1278.09 94.76 1278.1 94.75C1278.11 94.74 1278.12 94.73 1278.14 94.73L1284.37 94.73C1284.4 94.73 1284.42 94.74 1284.43 94.75C1284.44 94.77 1284.46 94.79 1284.46 94.82L1284.46 140.79C1284.46 140.81 1284.44 140.82 1284.43 140.83C1284.43 140.84 1284.42 140.85 1284.4 140.85L1278.82 140.85C1278.81 140.85 1278.79 140.84 1278.78 140.83C1278.76 140.82 1278.75 140.8 1278.75 140.78L1272.16 114.54C1272.16 114.53 1272.15 114.52 1272.14 114.51C1272.13 114.51 1272.12 114.51 1272.12 114.51C1272.11 114.51 1272.1 114.51 1272.09 114.52C1272.09 114.53 1272.07 114.54 1272.07 114.55C1272.07 114.56 1272.09 114.58 1272.09 114.59C1272.09 114.62 1272.1 114.64 1272.11 114.66C1272.11 114.68 1272.11 114.7 1272.11 114.7L1272.11 140.79C1272.11 140.81 1272.11 140.82 1272.09 140.83C1272.07 140.84 1272.06 140.85 1272.05 140.85L1265.93 140.85C1265.91 140.85 1265.88 140.84 1265.86 140.82C1265.82 140.79 1265.81 140.77 1265.81 140.73L1265.81 94.79C1265.81 94.77 1265.82 94.76 1265.84 94.74C1265.85 94.73 1265.86 94.73 1265.88 94.73L1272.07 94.73C1272.1 94.73 1272.11 94.73 1272.12 94.74C1272.12 94.75 1272.13 94.75 1272.13 94.77L1278.02 119.09C1278.02 119.09 1278.02 119.1 1278.02 119.1C1278.02 119.11 1278.03 119.11 1278.03 119.11C1278.03 119.11 1278.04 119.12 1278.04 119.12C1278.05 119.12 1278.05 119.12 1278.05 119.12C1278.06 119.12 1278.06 119.12 1278.06 119.11C1278.06 119.11 1278.06 119.11 1278.07 119.11C1278.07 119.1 1278.07 119.1 1278.07 119.09C1278.07 119.09 1278.07 119.09 1278.07 119.08Z" fill="#FFFFFF" fill-opacity="1.000000" fill-rule="nonzero"/>
		<path id="Vector" d="M1341.07 120.67L1341.06 140.77C1341.06 140.78 1341.06 140.79 1341.05 140.8C1341.05 140.81 1341.04 140.82 1341.04 140.83C1341.03 140.83 1341.02 140.84 1341.01 140.84C1341 140.85 1340.99 140.85 1340.98 140.85L1334.17 140.85C1334.14 140.85 1334.12 140.84 1334.11 140.83C1334.09 140.81 1334.08 140.79 1334.08 140.77L1334.08 94.81C1334.08 94.79 1334.09 94.77 1334.11 94.75C1334.12 94.74 1334.14 94.73 1334.17 94.73L1340.98 94.74C1341 94.74 1341.02 94.74 1341.04 94.76C1341.06 94.78 1341.07 94.8 1341.07 94.82L1341.06 113.11C1341.06 113.13 1341.07 113.15 1341.09 113.17C1341.1 113.18 1341.12 113.19 1341.15 113.19L1345.71 113.19C1345.73 113.19 1345.75 113.18 1345.77 113.17C1345.79 113.15 1345.79 113.13 1345.79 113.11L1345.79 94.81C1345.79 94.79 1345.8 94.77 1345.82 94.75C1345.84 94.74 1345.86 94.73 1345.88 94.73L1352.72 94.73C1352.74 94.73 1352.77 94.74 1352.78 94.75C1352.8 94.77 1352.81 94.79 1352.81 94.81L1352.81 140.77C1352.81 140.79 1352.8 140.81 1352.78 140.83C1352.77 140.84 1352.74 140.85 1352.72 140.85L1345.88 140.85C1345.86 140.85 1345.84 140.84 1345.82 140.83C1345.8 140.81 1345.79 140.79 1345.79 140.77L1345.79 120.67C1345.79 120.65 1345.79 120.63 1345.77 120.61C1345.75 120.6 1345.73 120.59 1345.71 120.59L1341.15 120.59C1341.13 120.59 1341.11 120.6 1341.09 120.61C1341.08 120.63 1341.07 120.65 1341.07 120.67Z" fill="#FFFFFF" fill-opacity="1.000000" fill-rule="nonzero"/>
		<path id="Vector" d="M1404.99 133.72L1413.34 133.72C1413.36 133.72 1413.38 133.73 1413.4 133.74C1413.41 133.76 1413.42 133.78 1413.42 133.8L1413.42 140.77C1413.42 140.79 1413.41 140.81 1413.4 140.83C1413.38 140.84 1413.36 140.85 1413.34 140.85L1398.01 140.85C1397.99 140.85 1397.97 140.84 1397.95 140.83C1397.94 140.81 1397.93 140.79 1397.93 140.77L1397.93 94.81C1397.93 94.79 1397.94 94.77 1397.95 94.75C1397.97 94.74 1397.99 94.73 1398.01 94.73L1404.83 94.73C1404.85 94.73 1404.87 94.74 1404.89 94.75C1404.9 94.77 1404.91 94.79 1404.91 94.81L1404.91 133.64C1404.91 133.66 1404.92 133.68 1404.94 133.69C1404.95 133.71 1404.97 133.72 1404.99 133.72Z" fill="#FFFFFF" fill-opacity="1.000000" fill-rule="nonzero"/>
	</g>
</svg>
