<svg width="1030.796875" height="142.391602" viewBox="0 0 1030.8 142.392" fill="none" xmlns="http://www.w3.org/2000/svg" xmlns:xlink="http://www.w3.org/1999/xlink">
	<desc>
			Created with Pixso.
	</desc>
	<defs/>
	<path id="Vector" d="M433.66 140.17C430.87 141.65 427.53 142.39 423.63 142.39C419.73 142.39 416.36 141.65 413.52 140.17C410.72 138.64 408.54 136.51 406.96 133.77C405.38 131.03 404.22 127.95 403.48 124.53C402.74 121.1 402.37 117.29 402.37 113.07C402.37 108.86 402.74 105.07 403.48 101.69C404.22 98.27 405.38 95.21 406.96 92.53C408.54 89.79 410.72 87.68 413.52 86.21C416.36 84.73 419.73 84 423.63 84C427.53 84 430.87 84.73 433.66 86.21C436.51 87.68 438.72 89.79 440.3 92.53C441.88 95.21 443.04 98.27 443.78 101.69C444.52 105.07 444.88 108.86 444.88 113.07C444.88 117.29 444.52 121.1 443.78 124.53C443.04 127.95 441.88 131.03 440.3 133.77C438.72 136.51 436.51 138.64 433.66 140.17ZM416.6 113.07C416.6 124.19 418.94 129.74 423.63 129.74C428.32 129.74 430.66 124.19 430.66 113.07C430.66 102.12 428.32 96.64 423.63 96.64C418.94 96.64 416.6 102.12 416.6 113.07Z" fill="#000000" fill-opacity="1.000000" fill-rule="nonzero"/>
	<path id="Vector" d="M355.5 139.94L359.22 128.08C361.8 129.19 364.38 129.74 366.96 129.74C373.02 129.74 377.07 126.64 379.13 120.42L378.97 120.42C378.34 120.95 377.23 121.42 375.65 121.84C374.07 122.21 372.59 122.4 371.22 122.4C365.64 122.4 361.16 120.47 357.79 116.63C354.42 112.73 352.74 108.2 352.74 103.04C352.74 97.93 354.47 93.48 357.95 89.68C361.48 85.89 366.17 84 372.02 84C378.23 84 383.6 86.34 388.13 91.03C392.66 95.72 394.93 102.38 394.93 111.02C394.93 114.92 394.32 118.71 393.11 122.4C391.95 126.08 390.27 129.43 388.06 132.43C385.89 135.43 383.05 137.86 379.52 139.7C376.04 141.49 372.2 142.39 367.99 142.39C363.09 142.39 358.93 141.57 355.5 139.94ZM374.86 111.26C378.76 111.26 380.71 110.12 380.71 107.86C380.71 104.7 379.78 102.04 377.94 99.88C376.1 97.72 374.12 96.64 372.02 96.64C370.33 96.64 368.96 97.27 367.91 98.53C366.85 99.75 366.33 101.22 366.33 102.96C366.33 105.22 367.04 107.17 368.46 108.81C369.88 110.44 372.02 111.26 374.86 111.26Z" fill="#000000" fill-opacity="1.000000" fill-rule="nonzero"/>
	<path id="Vector" d="M305.62 125.24C305.62 123.4 305.93 121.63 306.56 119.95C307.2 118.26 308.04 116.81 309.09 115.6C310.15 114.34 311.04 113.36 311.78 112.68C312.57 111.94 313.36 111.28 314.15 110.7C310.25 107.7 308.3 104.06 308.3 99.8C308.3 95.53 309.86 91.9 312.97 88.89C316.07 85.89 320.52 84.39 326.32 84.39C331.64 84.39 335.98 85.79 339.35 88.58C342.78 91.37 344.49 95.14 344.49 99.88C344.49 104.62 342.41 109.28 338.25 113.86C343.04 116.92 345.44 120.87 345.44 125.72C345.44 130.24 343.62 134.17 339.99 137.49C336.41 140.75 331.61 142.39 325.61 142.39C319.71 142.39 314.89 140.75 311.15 137.49C307.46 134.17 305.62 130.09 305.62 125.24ZM330.66 110.07C333.24 106.91 334.54 103.78 334.54 100.67C334.54 98.46 333.75 96.72 332.17 95.45C330.64 94.14 328.61 93.48 326.08 93.48C323.66 93.48 321.76 94.08 320.39 95.29C319.02 96.51 318.34 98.06 318.34 99.96C318.34 100.54 318.39 101.09 318.5 101.62C318.65 102.09 318.89 102.59 319.21 103.12C319.57 103.59 319.87 104.01 320.07 104.38C320.34 104.7 320.79 105.07 321.42 105.49C322.1 105.91 322.6 106.25 322.92 106.52C323.29 106.72 323.89 107.04 324.74 107.46C325.63 107.88 326.24 108.17 326.56 108.33C326.92 108.44 327.64 108.73 328.69 109.2C329.74 109.68 330.4 109.97 330.66 110.07ZM316.05 124.45C316.05 126.98 316.99 129.11 318.89 130.85C320.79 132.54 323.03 133.38 325.61 133.38C328.29 133.38 330.53 132.64 332.32 131.17C334.17 129.64 335.09 127.69 335.09 125.32C335.09 124.32 334.85 123.42 334.38 122.63C333.96 121.84 333.17 121.08 332.01 120.34C330.9 119.55 329.95 118.95 329.16 118.52C328.37 118.1 327.06 117.5 325.21 116.71C323.37 115.92 322.08 115.34 321.34 114.97C317.81 117.97 316.05 121.13 316.05 124.45Z" fill="#000000" fill-opacity="1.000000" fill-rule="nonzero"/>
	<path id="Vector" d="M264.85 141.44L285.87 99.25C286.4 98.19 286.93 97.24 287.45 96.4C288.03 95.56 288.45 94.98 288.72 94.66L289.11 94.11L289.11 93.95C288.53 94.06 287.29 94.11 285.4 94.11L261.46 94.11L261.46 85.34L300.02 85.34L300.02 92.45L275.44 141.44L264.85 141.44Z" fill="#000000" fill-opacity="1.000000" fill-rule="nonzero"/>
	<path id="Vector" d="M215.81 116.15C215.81 113.2 216.13 110.28 216.76 107.38C217.39 104.43 218.37 101.59 219.68 98.85C221.05 96.11 222.69 93.71 224.58 91.66C226.48 89.55 228.82 87.87 231.62 86.6C234.46 85.34 237.54 84.71 240.86 84.71C244.92 84.71 248.55 85.47 251.76 87L249.24 93.71C246.92 92.5 244.23 91.9 241.18 91.9C236.43 91.9 232.64 93.74 229.8 97.43C226.95 101.06 225.19 105.46 224.5 110.62L224.66 110.62C225.82 109.04 227.53 107.78 229.8 106.83C232.12 105.88 234.51 105.41 236.99 105.41C242.2 105.41 246.44 107.15 249.71 110.62C252.97 114.1 254.61 118.5 254.61 123.82C254.61 129.19 252.92 133.64 249.55 137.17C246.18 140.65 241.89 142.39 236.67 142.39C230.67 142.39 225.69 139.96 221.74 135.12C217.79 130.27 215.81 123.95 215.81 116.15ZM236.91 135.2C239.86 135.2 242.26 134.12 244.1 131.96C245.94 129.8 246.86 127.08 246.86 123.82C246.86 120.29 245.84 117.44 243.78 115.28C241.73 113.07 238.94 111.97 235.41 111.97C232.35 111.97 229.69 112.73 227.43 114.26C225.16 115.78 224.03 117.76 224.03 120.18C224.03 123.61 225.24 126.98 227.66 130.3C230.14 133.56 233.22 135.2 236.91 135.2Z" fill="#000000" fill-opacity="1.000000" fill-rule="nonzero"/>
	<path id="Vector" d="M170.66 134.64L175.08 128.95C178.35 132.96 182.43 134.96 187.33 134.96C190.7 134.96 193.57 133.91 195.94 131.8C198.31 129.69 199.5 126.98 199.5 123.66C199.5 120.34 198.29 117.6 195.86 115.44C193.49 113.28 190.49 112.2 186.86 112.2C183.38 112.2 180.25 113.13 177.45 114.97L172.87 113.31L175.64 85.65L203.85 85.65L203.85 92.45L182.43 92.45L181.17 104.22L180.69 107.07L180.85 107.07C182.96 105.96 185.38 105.41 188.12 105.41C193.92 105.41 198.6 107.17 202.19 110.7C205.77 114.18 207.56 118.5 207.56 123.66C207.56 128.98 205.66 133.43 201.87 137.01C198.13 140.6 193.44 142.39 187.81 142.39C184.49 142.39 181.3 141.73 178.24 140.41C175.24 139.04 172.71 137.12 170.66 134.64Z" fill="#000000" fill-opacity="1.000000" fill-rule="nonzero"/>
	<path id="Vector" d="M122.34 126.03L122.34 122.47L149.6 85.89L155.52 85.89L155.52 121.29L163.42 121.29L163.42 126.03L155.52 126.03L155.52 141.44L150.07 141.44L150.07 126.03L122.34 126.03ZM128.89 121.29L150.07 121.29L150.07 97.98L150.39 92.69L150.23 92.69C149.33 94.21 148.41 95.64 147.46 96.95L128.89 121.13L128.89 121.29Z" fill="#000000" fill-opacity="1.000000" fill-rule="nonzero"/>
	<path id="Vector" d="M78.84 134.8L82.23 130.61C83.92 132.46 86.03 134.01 88.56 135.27C91.08 136.49 93.72 137.09 96.46 137.09C99.88 137.09 102.83 135.99 105.31 133.77C107.84 131.51 109.1 128.64 109.1 125.16C109.1 121.42 107.73 118.52 104.99 116.47C102.3 114.36 99.04 113.31 95.19 113.31L91.32 113.31L89.98 110.07L103.88 93.79L106.81 90.71L106.81 90.55C105.75 90.71 104.25 90.79 102.3 90.79L81.44 90.79L81.44 85.89L113.92 85.89L113.92 89.53L97.41 108.65C99.3 108.75 101.2 109.12 103.09 109.75C104.99 110.33 106.83 111.23 108.63 112.44C110.42 113.6 111.86 115.28 112.97 117.5C114.13 119.66 114.71 122.16 114.71 125C114.71 129.8 112.97 133.9 109.49 137.33C106.02 140.7 101.67 142.39 96.46 142.39C93.24 142.39 90.08 141.73 86.98 140.41C83.87 139.04 81.15 137.17 78.84 134.8Z" fill="#000000" fill-opacity="1.000000" fill-rule="nonzero"/>
	<path id="Vector" d="M36.19 141.44C36.04 140.41 35.96 139.46 35.96 138.52C35.96 119.32 65.43 117.1 65.43 100.35C65.43 93.71 60.53 88.5 52.55 88.5C47.02 88.5 42.04 91.74 39.12 96.4L36.59 94.66C39.67 89.21 45.83 85.18 52.63 85.18C63.53 85.18 68.98 92.45 68.98 100.35C68.98 119.24 39.59 121.61 39.59 138.28L69.85 138.28L69.85 141.44L36.19 141.44Z" fill="#000000" fill-opacity="1.000000" fill-rule="nonzero"/>
	<path id="Vector" d="M0 141.44L0 138.28L12.56 138.28L12.56 93.24C12.56 91.82 12.64 90.47 12.64 90.47L12.48 90.47C12.48 90.47 11.93 91.5 9.56 93.87L3 100.43L0.63 98.14L12.56 86.13L15.96 86.13L15.96 138.28L28.2 138.28L28.2 141.44L0 141.44Z" fill="#000000" fill-opacity="1.000000" fill-rule="nonzero"/>
	<path id="Vector" d="M1018.35 62.32C1015.25 63.95 1011.54 64.77 1007.22 64.77C1002.89 64.77 999.15 63.95 995.99 62.32C992.9 60.62 990.47 58.26 988.72 55.22C986.97 52.18 985.68 48.76 984.86 44.96C984.04 41.16 983.63 36.93 983.63 32.25C983.63 27.58 984.04 23.37 984.86 19.63C985.68 15.83 986.97 12.44 988.72 9.46C990.47 6.42 992.9 4.09 995.99 2.45C999.15 0.81 1002.89 0 1007.22 0C1011.54 0 1015.25 0.81 1018.35 2.45C1021.51 4.09 1023.96 6.42 1025.71 9.46C1027.47 12.44 1028.75 15.83 1029.56 19.63C1030.39 23.37 1030.8 27.58 1030.8 32.25C1030.8 36.93 1030.39 41.16 1029.56 44.96C1028.75 48.76 1027.47 52.18 1025.71 55.22C1023.96 58.26 1021.51 60.62 1018.35 62.32ZM999.41 32.25C999.41 44.58 1002.02 50.75 1007.22 50.75C1012.42 50.75 1015.02 44.58 1015.02 32.25C1015.02 20.1 1012.42 14.02 1007.22 14.02C1002.02 14.02 999.41 20.1 999.41 32.25Z" fill="#000000" fill-opacity="1.000000" fill-rule="nonzero"/>
	<path id="Vector" d="M931.63 62.05L935.75 48.91C938.62 50.13 941.48 50.75 944.34 50.75C951.06 50.75 955.56 47.3 957.84 40.4L957.67 40.4C956.97 40.99 955.74 41.51 953.99 41.98C952.23 42.39 950.6 42.6 949.08 42.6C942.88 42.6 937.92 40.46 934.18 36.2C930.44 31.87 928.57 26.85 928.57 21.12C928.57 15.45 930.49 10.51 934.35 6.31C938.27 2.1 943.47 0 949.95 0C956.85 0 962.81 2.6 967.84 7.8C972.86 13 975.37 20.39 975.37 29.97C975.37 34.3 974.7 38.5 973.36 42.6C972.07 46.69 970.2 50.4 967.75 53.73C965.35 57.06 962.2 59.75 958.28 61.79C954.42 63.78 950.16 64.77 945.48 64.77C940.05 64.77 935.43 63.87 931.63 62.05ZM953.11 30.24C957.43 30.24 959.6 28.98 959.6 26.47C959.6 22.96 958.57 20.01 956.53 17.61C954.48 15.22 952.29 14.02 949.95 14.02C948.08 14.02 946.56 14.72 945.4 16.12C944.23 17.47 943.64 19.1 943.64 21.03C943.64 23.54 944.43 25.71 946.01 27.52C947.59 29.33 949.95 30.24 953.11 30.24Z" fill="#000000" fill-opacity="1.000000" fill-rule="nonzero"/>
	<path id="Vector" d="M874.37 47.42C874.37 45.14 874.9 42.92 875.95 40.75C877 38.59 878.38 36.69 880.07 35.06C881.77 33.42 883.11 32.19 884.1 31.38C885.15 30.56 886.18 29.83 887.17 29.18C883.9 26.2 882.26 22.79 882.26 18.93C882.26 14.14 884.25 9.87 888.22 6.13C892.25 2.33 897.6 0.43 904.26 0.43C909.99 0.43 914.55 1.81 917.94 4.55C921.33 7.3 923.02 11.07 923.02 15.86C923.02 17.79 922.58 19.81 921.71 21.91C920.89 23.95 919.81 25.82 918.46 27.52C917.18 29.16 916.13 30.44 915.31 31.38C914.49 32.25 913.7 33.01 912.94 33.66C917.03 36.69 919.08 40.37 919.08 44.7C919.08 50.08 916.77 54.78 912.15 58.81C907.59 62.79 901.84 64.77 894.88 64.77C888.51 64.77 883.49 63.2 879.81 60.04C876.18 56.83 874.37 52.62 874.37 47.42ZM904.79 29.1C909.35 25.01 911.63 20.92 911.63 16.83C911.63 14.84 910.93 13.29 909.52 12.18C908.12 11.07 906.19 10.51 903.74 10.51C900.7 10.51 898.24 11.33 896.37 12.97C894.5 14.6 893.57 16.59 893.57 18.93C893.57 19.45 893.63 19.98 893.74 20.51C893.86 20.97 894.07 21.44 894.36 21.91C894.71 22.38 895 22.79 895.23 23.14C895.47 23.49 895.88 23.9 896.46 24.36C897.05 24.77 897.48 25.09 897.78 25.33C898.13 25.56 898.68 25.91 899.44 26.38C900.26 26.79 900.81 27.08 901.11 27.26C901.4 27.43 902.01 27.75 902.95 28.22C903.94 28.69 904.56 28.98 904.79 29.1ZM886.21 46.63C886.21 49.02 887.05 50.98 888.75 52.5C890.44 54.02 892.58 54.78 895.15 54.78C898.36 54.78 901.19 53.84 903.65 51.97C906.16 50.1 907.42 47.68 907.42 44.7C907.42 43.76 907.21 42.92 906.81 42.16C906.4 41.34 905.67 40.55 904.61 39.79C903.56 39.03 902.68 38.45 901.98 38.04C901.34 37.57 900.11 36.9 898.3 36.02C896.55 35.15 895.38 34.53 894.8 34.18C889.07 38.21 886.21 42.36 886.21 46.63Z" fill="#000000" fill-opacity="1.000000" fill-rule="nonzero"/>
	<path id="Vector" d="M824.69 63.72L857.12 16.91C857.88 15.74 858.67 14.69 859.49 13.76C860.31 12.82 860.95 12.18 861.42 11.83L862.03 11.21L862.03 11.04C861.21 11.16 859.75 11.21 857.65 11.21L831.88 11.21L833.81 1.49L876.58 1.49L875.09 9.37L837.22 63.72L824.69 63.72Z" fill="#000000" fill-opacity="1.000000" fill-rule="nonzero"/>
	<path id="Vector" d="M775.72 42.16C775.72 38.07 776.48 33.68 778 29.01C779.58 24.33 781.74 19.86 784.49 15.6C787.23 11.33 790.83 7.8 795.27 4.99C799.77 2.19 804.62 0.78 809.82 0.78C814.61 0.78 818.85 1.66 822.53 3.41L818.59 10.51C815.9 9.34 813.01 8.76 809.91 8.76C804.65 8.76 800.03 10.81 796.06 14.9C792.09 18.93 789.16 23.81 787.29 29.54L787.47 29.54C788.99 27.72 791 26.32 793.52 25.33C796.09 24.28 798.66 23.75 801.23 23.75C806.55 23.75 810.7 25.3 813.68 28.4C816.66 31.49 818.15 35.58 818.15 40.67C818.15 44.58 817.24 48.38 815.43 52.06C813.62 55.69 810.93 58.72 807.37 61.18C803.86 63.57 799.89 64.77 795.45 64.77C789.48 64.77 784.69 62.73 781.07 58.64C777.51 54.55 775.72 49.05 775.72 42.16ZM784.49 42.95C784.49 46.69 785.48 49.93 787.47 52.68C789.51 55.42 792.17 56.8 795.45 56.8C799.42 56.8 802.75 55.25 805.44 52.15C808.18 49 809.56 45.25 809.56 40.93C809.56 37.89 808.62 35.5 806.75 33.74C804.94 31.93 802.34 31.03 798.95 31.03C795.45 31.03 792.14 32.19 789.05 34.53C786.01 36.81 784.49 39.62 784.49 42.95Z" fill="#000000" fill-opacity="1.000000" fill-rule="nonzero"/>
	<path id="Vector" d="M722.05 56.18L727.66 50.31C730.87 54.46 735.16 56.53 740.54 56.53C744.86 56.53 748.63 55.1 751.85 52.24C755.12 49.32 756.76 45.87 756.76 41.89C756.76 38.68 755.65 36.11 753.43 34.18C751.21 32.25 748.31 31.29 744.75 31.29C742.88 31.29 741.01 31.55 739.14 32.08C737.33 32.6 735.98 33.1 735.11 33.57L733.7 34.36L728.71 32.43L737.82 1.83L769.29 1.83L767.89 9.37L744.13 9.37L740.19 22.26L739.14 25.41L739.31 25.41C741.53 24.3 744.25 23.75 747.47 23.75C752.78 23.75 757.14 25.41 760.53 28.75C763.97 32.02 765.7 36.28 765.7 41.54C765.7 47.91 763.21 53.38 758.25 57.93C753.28 62.49 747.32 64.77 740.37 64.77C736.68 64.77 733.21 64.04 729.93 62.58C726.66 61.06 724.03 58.93 722.05 56.18Z" fill="#000000" fill-opacity="1.000000" fill-rule="nonzero"/>
	<path id="Vector" d="M670.19 46.63L670.89 42.68L708.49 2.1L715.59 2.1L707.97 41.37L716.73 41.37L715.68 46.63L706.92 46.63L703.58 63.72L697.54 63.72L700.87 46.63L670.19 46.63ZM678.95 41.37L701.92 41.37L707 15.51L708.41 9.64L708.23 9.64C706.89 11.33 705.57 12.91 704.29 14.37L678.95 41.19L678.95 41.37Z" fill="#000000" fill-opacity="1.000000" fill-rule="nonzero"/>
	<path id="Vector" d="M619.83 56.36L623.95 52.15C627.92 56.65 632.95 58.9 639.02 58.9C643.35 58.9 647.21 57.38 650.59 54.34C654.04 51.24 655.77 47.47 655.77 43.03C655.77 39.64 654.54 37.04 652.08 35.23C649.63 33.42 646.47 32.51 642.62 32.51L637.88 32.51L637.1 28.92L655.94 10.86L659.89 7.44L659.89 7.27C658.66 7.44 656.96 7.53 654.8 7.53L632.1 7.53L633.15 2.1L669.18 2.1L668.39 6.13L645.86 27.52C647.61 27.58 649.34 27.87 651.03 28.39C652.73 28.92 654.42 29.74 656.12 30.85C657.87 31.96 659.27 33.57 660.32 35.67C661.43 37.71 661.99 40.14 661.99 42.95C661.99 48.79 659.68 53.9 655.06 58.29C650.51 62.61 645.1 64.77 638.85 64.77C635.11 64.77 631.54 64.07 628.15 62.67C624.82 61.21 622.05 59.1 619.83 56.36Z" fill="#000000" fill-opacity="1.000000" fill-rule="nonzero"/>
	<path id="Vector" d="M571.73 63.72C571.79 60.74 572.4 58 573.57 55.48C574.74 52.97 576.49 50.63 578.83 48.47C581.17 46.25 583.33 44.44 585.31 43.04C587.3 41.63 589.99 39.91 593.38 37.86C600.1 33.71 604.48 30.76 606.53 29.01C611.03 25.1 613.28 20.83 613.28 16.21C613.28 12.71 612.14 9.96 609.86 7.97C607.64 5.99 604.74 4.99 601.18 4.99C598.08 4.99 595.04 5.78 592.06 7.36C589.14 8.94 586.63 11.04 584.53 13.67L581.81 11.39C584.03 8.41 586.89 5.99 590.4 4.12C593.9 2.25 597.59 1.31 601.44 1.31C606.18 1.31 609.97 2.66 612.84 5.34C615.76 7.97 617.22 11.51 617.22 15.95C617.22 18.7 616.72 21.21 615.73 23.49C614.74 25.77 612.93 28.05 610.3 30.33C607.72 32.55 605.68 34.18 604.16 35.23C602.7 36.29 600.04 37.98 596.18 40.32C595.66 40.67 595.25 40.93 594.96 41.11C592.21 42.8 590.02 44.2 588.38 45.31C586.81 46.37 585.02 47.74 583.03 49.43C581.05 51.07 579.5 52.79 578.39 54.61C577.28 56.36 576.52 58.23 576.11 60.22L609.68 60.22L608.98 63.72L571.73 63.72Z" fill="#000000" fill-opacity="1.000000" fill-rule="nonzero"/>
	<path id="Vector" d="M532 63.72L532.61 60.21L546.55 60.21L556.19 10.69L556.89 7.62L556.71 7.62C556.13 8.38 554.78 9.64 552.68 11.39L544.27 18.49L541.99 15.69L557.85 2.36L561.62 2.36L550.32 60.21L563.9 60.21L563.2 63.72L532 63.72Z" fill="#000000" fill-opacity="1.000000" fill-rule="nonzero"/>
</svg>
