<svg width="305" height="406" viewBox="0 0 305 406" fill="none" xmlns="http://www.w3.org/2000/svg">
<circle cx="224" cy="242" r="162.5" fill="#C63A19" stroke="black" stroke-width="3"/>
<path d="M76.4561 63.8379C88.3051 76.132 97.4685 88.688 102.722 99.0152C105.353 104.187 106.963 108.722 107.478 112.338C108 115.997 107.364 118.375 105.99 119.699C104.616 121.023 102.216 121.571 98.5794 120.915C94.9847 120.266 90.5125 118.491 85.4408 115.671C75.3142 110.04 63.1044 100.42 51.2554 88.1262C39.4063 75.8321 30.2429 63.2761 24.9896 52.9489C22.3586 47.7767 20.7488 43.2421 20.2333 39.6259C19.7117 35.9675 20.3473 33.5893 21.7213 32.265C23.0953 30.9407 25.4953 30.3932 29.132 31.0493C32.7267 31.6978 37.199 33.4735 42.2707 36.2934C52.3972 41.9238 64.607 51.5437 76.4561 63.8379Z" fill="#D9D9D9" stroke="black" stroke-width="3"/>
<path d="M173.789 85.9502C160.2 99.0476 146.467 109.343 135.28 115.412C129.676 118.452 124.789 120.39 120.924 121.125C116.986 121.873 114.541 121.303 113.265 119.978C111.989 118.654 111.509 116.19 112.402 112.282C113.278 108.447 115.395 103.635 118.639 98.1472C125.117 87.1913 135.912 73.8469 149.501 60.7495C163.09 47.6521 176.823 37.3572 188.011 31.2874C193.614 28.2472 198.501 26.3096 202.366 25.5751C206.304 24.8266 208.749 25.3971 210.025 26.7213C211.301 28.0455 211.781 30.5094 210.888 34.4173C210.012 38.2525 207.895 43.065 204.651 48.5525C198.173 59.5084 187.379 72.8528 173.789 85.9502Z" fill="#D9D9D9" stroke="black" stroke-width="3"/>
<path d="M75.5015 181.871C63.3762 193.558 50.9735 202.574 40.7585 207.721C35.6426 210.298 31.1539 211.866 27.5701 212.353C23.9476 212.845 21.578 212.201 20.2473 210.82C18.9165 209.439 18.3599 207.048 18.9855 203.446C19.6045 199.882 21.3361 195.455 24.1007 190.437C29.6208 180.419 39.0878 168.357 51.2131 156.67C63.3385 144.984 75.7412 135.968 85.9561 130.821C91.0721 128.243 95.5608 126.676 99.1446 126.189C102.767 125.696 105.137 126.341 106.467 127.721C107.798 129.102 108.355 131.494 107.729 135.096C107.11 138.659 105.379 143.087 102.614 148.104C97.0939 158.123 87.6269 170.185 75.5015 181.871Z" fill="#D9D9D9" stroke="black" stroke-width="3"/>
<path d="M109 3V224" stroke="black" stroke-width="5" stroke-linecap="round" stroke-linejoin="round"/>
<path d="M224 123H3" stroke="black" stroke-width="5" stroke-linecap="round" stroke-linejoin="round"/>
</svg>
